<?xml version="1.0" encoding="UTF-8"?>
<svg width="100px" height="100px" viewBox="0 0 100 100" version="1.1" xmlns="http://www.w3.org/2000/svg" xmlns:xlink="http://www.w3.org/1999/xlink">
    <!-- Generator: Sketch 53 (72520) - https://sketchapp.com -->
    <title>default-user</title>
    <desc>Created with Sketch.</desc>
    <g id="Front-end" stroke="none" stroke-width="1" fill="none" fill-rule="evenodd">
        <g id="default-user">
            <circle id="Oval" fill="#F2F8FF" cx="50" cy="50" r="50"></circle>
            <path d="M49.9999499,50.0000429 C47.8124556,50.0000429 45.7968354,49.4687937 43.9530893,48.4062967 C42.1093433,47.3437997 40.6562217,45.8906782 39.5937247,44.0469321 C38.5312278,42.203186 37.9999785,40.1875658 37.9999785,38.0000715 C37.9999785,35.8125772 38.5312278,33.796957 39.5937247,31.9532109 C40.6562217,30.1094649 42.1093433,28.6563433 43.9530893,27.5938463 C45.7968354,26.5313493 47.8124556,26.0001001 49.9999499,26.0001001 C52.1874442,26.0001001 54.2030644,26.5313493 56.0468105,27.5938463 C57.8905566,28.6563433 59.3436781,30.1094649 60.4061751,31.9532109 C61.4686721,33.796957 61.9999213,35.8125772 61.9999213,38.0000715 C61.9999213,40.1875658 61.4686721,42.203186 60.4061751,44.0469321 C59.3436781,45.8906782 57.8905566,47.3437997 56.0468105,48.4062967 C54.2030644,49.4687937 52.1874442,50.0000429 49.9999499,50.0000429 Z M58.4374298,53.0000358 C60.6874245,53.0000358 62.781169,53.5625344 64.7186648,54.6875317 C66.6561607,55.8125291 68.1874066,57.3437749 69.3124039,59.2812708 C70.4374012,61.2187666 70.9998999,63.3125112 70.9998999,65.5625058 L70.9998999,69.4999964 C70.9998999,70.749993 70.5624004,71.8124914 69.687403,72.6874888 C68.8124056,73.5624863 67.7499071,73.9999857 66.4999106,73.9999857 L33.4999893,73.9999857 C32.2499927,73.9999857 31.1874943,73.5624863 30.3124969,72.6874888 C29.4374994,71.8124914 29,70.749993 29,69.4999964 L29,65.5625058 C29,63.3125112 29.5624987,61.2187666 30.687496,59.2812708 C31.8124933,57.3437749 33.3437392,55.8125291 35.281235,54.6875317 C37.2187309,53.5625344 39.3124754,53.0000358 41.56247,53.0000358 L43.1562162,53.0000358 C45.3437106,54.0000339 47.6249561,54.5000322 49.9999499,54.5000322 C52.3749438,54.5000322 54.6561893,54.0000339 56.8436836,53.0000358 L58.4374298,53.0000358 Z" id="u" fill="#BDD8F2" fill-rule="nonzero"></path>
        </g>
    </g>
</svg>