<svg width="20" height="20" viewBox="0 0 20 20" fill="none" xmlns="http://www.w3.org/2000/svg">
<g clip-path="url(#clip0_478_9085)">
<path d="M13.4784 0.621221C12.395 0.219307 11.2234 -0.000732417 10.0002 -0.000732417C8.77695 -0.000771479 7.60523 0.219307 6.52191 0.621221L5.65234 9.99923L6.52191 19.3772C7.60519 19.7793 8.77691 19.9993 10.0002 19.9993C11.2233 19.9993 12.3951 19.7793 13.4784 19.3772L14.3479 9.99927L13.4784 0.621221Z" fill="#FFDA44"/>
<path d="M19.9998 9.99959C19.9998 5.69998 17.286 2.03447 13.478 0.621582V19.3777C17.286 17.9646 19.9997 14.2993 19.9998 9.99959Z" fill="#D80027"/>
<path d="M0.000244141 9.99951C0.000244141 14.2992 2.71399 17.9646 6.52192 19.3776L6.52196 0.621582C2.71399 2.03447 0.000244141 5.69986 0.000244141 9.99951Z" fill="#0052B4"/>
</g>
<defs>
<clipPath id="clip0_478_9085">
<rect width="20" height="20" fill="white"/>
</clipPath>
</defs>
</svg>
