<svg width="562" height="80" viewBox="0 0 562 80" fill="none" xmlns="http://www.w3.org/2000/svg">
<path d="M8 46.6844L8 23.264H31.4204C31.4204 36.1998 20.9358 46.6844 8 46.6844Z" fill="#0DF196"/>
<path d="M31.4202 0L31.4202 23.2668C40.6708 23.2668 48.1533 30.7709 48.1533 40C48.1533 49.2507 40.6493 56.7332 31.4202 56.7332L31.4202 80C53.5226 80 71.4202 62.0809 71.4202 40C71.4202 17.9191 53.5226 -9.66128e-07 31.4202 0Z" fill="#1F2937"/>
<path d="M370.082 78.7697V1.8408H385.401V78.7697H370.082ZM345.036 13.6932V0.163574H410.448V13.6932H345.036Z" fill="#1F2937"/>
<path d="M321.369 79.9999C318.313 79.9999 315.294 79.5899 312.312 78.77C309.405 77.95 306.721 76.8318 304.261 75.4155C301.801 73.9246 299.677 72.1356 297.888 70.0484L306.609 61.215C308.473 63.3022 310.635 64.8676 313.095 65.9112C315.555 66.9548 318.275 67.4766 321.257 67.4766C323.642 67.4766 325.432 67.1412 326.624 66.4703C327.891 65.7994 328.525 64.793 328.525 63.4513C328.525 61.9604 327.854 60.805 326.512 59.985C325.245 59.165 323.568 58.4941 321.481 57.9723C319.394 57.376 317.194 56.7423 314.884 56.0715C312.647 55.326 310.486 54.3942 308.398 53.2761C306.311 52.0834 304.597 50.4807 303.255 48.468C301.988 46.3808 301.354 43.6972 301.354 40.4173C301.354 36.9883 302.174 34.0066 303.814 31.4721C305.528 28.9376 307.951 26.9622 311.082 25.5459C314.213 24.1296 317.903 23.4214 322.152 23.4214C326.624 23.4214 330.65 24.2041 334.228 25.7695C337.88 27.3349 340.899 29.683 343.285 32.8139L334.451 41.6473C332.811 39.6346 330.948 38.181 328.861 37.2865C326.848 36.392 324.649 35.9447 322.263 35.9447C320.102 35.9447 318.424 36.2801 317.232 36.951C316.114 37.6219 315.555 38.5537 315.555 39.7464C315.555 41.0882 316.188 42.1318 317.455 42.8772C318.797 43.6227 320.512 44.2936 322.599 44.8899C324.686 45.4117 326.848 46.0454 329.084 46.7908C331.395 47.4617 333.557 48.4307 335.569 49.698C337.657 50.9652 339.334 52.6424 340.601 54.7297C341.943 56.8169 342.614 59.5005 342.614 62.7804C342.614 68.073 340.713 72.2847 336.911 75.4155C333.11 78.4718 327.929 79.9999 321.369 79.9999Z" fill="#1F2937"/>
<path d="M263.363 79.9999L239.547 25.9932H255.648L272.756 70.4956H264.817L282.036 25.9932H297.579L273.874 79.9999H263.363Z" fill="#1F2937"/>
<path d="M212.017 79.9999C206.352 79.9999 201.32 78.8072 196.922 76.4218C192.524 73.9619 189.021 70.6074 186.412 66.3585C183.877 62.1095 182.61 57.2642 182.61 51.8225C182.61 46.4553 183.84 41.6846 186.3 37.5101C188.834 33.2611 192.263 29.9067 196.587 27.4467C200.91 24.9123 205.718 23.645 211.011 23.645C216.229 23.645 220.813 24.8377 224.764 27.2231C228.79 29.534 231.92 32.7393 234.157 36.8392C236.468 40.8646 237.623 45.449 237.623 50.5925C237.623 51.5616 237.548 52.5679 237.399 53.6115C237.325 54.5806 237.138 55.6987 236.84 56.966L191.443 57.0778V46.1199L230.02 46.0081L224.093 50.5925C223.944 47.3871 223.348 44.7036 222.304 42.5418C221.335 40.38 219.882 38.7401 217.944 37.6219C216.08 36.4292 213.769 35.8329 211.011 35.8329C208.104 35.8329 205.569 36.5038 203.408 37.8456C201.246 39.1128 199.569 40.9391 198.376 43.3245C197.258 45.6354 196.699 48.3935 196.699 51.5988C196.699 54.8788 197.295 57.7487 198.488 60.2086C199.755 62.594 201.544 64.4576 203.855 65.7994C206.166 67.0666 208.849 67.7002 211.905 67.7002C214.664 67.7002 217.161 67.253 219.397 66.3585C221.633 65.3894 223.572 63.9731 225.211 62.1095L233.821 70.7193C231.212 73.7755 228.007 76.0864 224.205 77.6518C220.478 79.2172 216.415 79.9999 212.017 79.9999Z" fill="#1F2937"/>
<path d="M547.043 78.7699L547.043 0H561.691V78.7699H547.043Z" fill="#1F2937"/>
<path d="M476.159 79.8879C471.239 79.8879 466.804 78.6579 462.853 76.198C458.902 73.738 455.809 70.3836 453.572 66.1346C451.336 61.8856 450.218 57.1148 450.218 51.8222C450.218 46.4551 451.336 41.647 453.572 37.3981C455.809 33.1491 458.902 29.7946 462.853 27.3347C466.804 24.8747 471.239 23.6448 476.159 23.6448C480.035 23.6448 483.502 24.4275 486.558 25.9929C489.614 27.5583 492.037 29.7573 493.826 32.59C495.69 35.3481 496.696 38.4789 496.845 41.9825V61.4384C496.696 65.0164 495.69 68.1845 493.826 70.9426C492.037 73.7008 489.614 75.8998 486.558 77.5397C483.502 79.1052 480.035 79.8879 476.159 79.8879ZM478.843 66.3582C482.943 66.3582 486.26 65.0164 488.794 62.3329C491.329 59.5748 492.596 56.0339 492.596 51.7104C492.596 48.8778 492 46.3806 490.807 44.2188C489.689 41.9825 488.086 40.268 485.999 39.0753C483.986 37.808 481.601 37.1744 478.843 37.1744C476.159 37.1744 473.774 37.808 471.687 39.0753C469.674 40.268 468.071 41.9825 466.878 44.2188C465.76 46.3806 465.201 48.8778 465.201 51.7104C465.201 54.6176 465.76 57.1894 466.878 59.4257C468.071 61.5874 469.674 63.3019 471.687 64.5692C473.774 65.7619 476.159 66.3582 478.843 66.3582ZM491.813 78.7697V64.2337L494.161 51.0395L491.813 38.069V24.7629H506.349V78.7697H491.813Z" fill="#1F2937"/>
<path d="M408.584 78.7697V24.7629H423.232V78.7697H408.584ZM423.232 48.915L417.529 45.1133C418.2 38.4789 420.138 33.2609 423.344 29.4592C426.549 25.5829 431.171 23.6448 437.209 23.6448C439.818 23.6448 442.166 24.092 444.253 24.9866C446.341 25.8065 448.241 27.1856 449.956 29.1237L440.787 39.6344C439.967 38.7398 438.961 38.0689 437.768 37.6217C436.65 37.1744 435.345 36.9508 433.854 36.9508C430.724 36.9508 428.152 37.9571 426.139 39.9698C424.201 41.9079 423.232 44.8897 423.232 48.915Z" fill="#1F2937"/>
<path d="M519.308 20.3155V5.55579L534.067 5.55579C534.067 13.708 527.46 20.3155 519.308 20.3155Z" fill="#1F2937"/>
<path d="M519.159 78.888V24.9583H534.17V78.888H519.159Z" fill="#1F2937"/>
<path fill-rule="evenodd" clip-rule="evenodd" d="M104.451 35.6003V80H115.035H119.928H132.471C138.313 80 143.737 79.0138 148.745 77.0413C153.828 75.0688 158.228 72.2997 161.945 68.734C165.663 65.0925 168.545 60.844 170.594 55.9886C172.718 51.0574 173.78 45.7089 173.78 39.9431C173.78 34.1774 172.718 28.8668 170.594 24.0114C168.545 19.156 165.625 14.9455 161.831 11.3798C158.114 7.7383 153.714 4.93128 148.631 2.95878C145.37 1.67416 143.154 0.807856 140.37 0.359867C140.322 5.1495 139.315 9.71258 137.528 13.8714C140.39 14.1508 141.868 15.0053 144.34 16.4349C144.686 16.6352 145.052 16.8468 145.444 17.0697C149.314 19.194 152.348 22.2286 154.548 26.1736C156.748 30.0427 157.848 34.5946 157.848 39.8293C157.848 45.2158 156.748 49.8815 154.548 53.8265C152.424 57.7715 149.427 60.844 145.558 63.0441C141.689 65.1683 137.175 66.2305 132.016 66.2305H119.928V32.0821C115.243 34.3098 109.995 35.5702 104.451 35.6003Z" fill="#1F2937"/>
<path d="M104 23.907V0L128.463 0C128.463 13.2045 117.512 23.907 104 23.907Z" fill="#1F2937"/>
</svg>
