<svg width="2227" height="596" viewBox="0 0 2227 596" fill="none" xmlns="http://www.w3.org/2000/svg">
<path d="M198.761 281.296H141.21V380.396H35.6538V7.01837H206.341C240.029 7.01837 269.506 12.6331 294.211 24.1432C319.196 35.0918 338.286 51.0937 351.761 72.1488C365.236 92.6425 371.974 117.066 371.974 145.14C371.974 172.09 365.517 195.953 352.884 216.166C340.532 236.098 322.565 251.819 298.983 263.049L379.554 380.396H266.699L198.761 281.296ZM265.576 145.14C265.576 127.734 259.961 114.259 249.012 104.714C238.064 95.1691 221.5 90.3966 199.884 90.3966H141.21V199.602H199.884C221.5 199.602 238.064 195.111 249.012 185.846C259.961 176.021 265.576 162.545 265.576 145.14ZM430.367 7.01837H535.923V380.396H430.367V7.01837ZM861.295 307.966H703.522L674.045 380.396H566.243L731.034 7.01837H834.906L1000.54 380.396H890.772L861.295 307.966ZM830.414 229.922L782.408 110.329L734.403 229.922H830.414ZM1275.38 185.846H1368.58V340.531C1347.25 355.691 1322.82 367.482 1295.03 375.623C1267.24 383.765 1239.44 387.976 1211.93 387.976C1172.91 387.976 1137.54 379.834 1106.38 363.552C1075.21 346.708 1050.51 323.687 1032.82 294.21C1015.14 264.733 1006.15 231.325 1006.15 193.988C1006.15 156.65 1015.14 123.243 1032.82 93.7654C1050.51 64.2883 1075.21 41.268 1106.94 24.9854C1138.66 8.14131 1174.31 0 1214.18 0C1248.99 0 1280.43 5.89543 1307.94 17.6863C1335.46 29.4772 1358.76 46.3213 1377.29 68.4993L1310.19 129.419C1284.92 101.626 1254.6 87.87 1219.51 87.87C1187.51 87.87 1161.68 97.6957 1142.31 117.066C1122.66 136.156 1112.83 161.984 1112.83 194.549C1112.83 215.043 1117.33 233.571 1126.31 250.135C1135.29 266.137 1147.64 278.77 1163.65 288.034C1179.65 297.017 1197.9 301.509 1218.67 301.509C1238.88 301.509 1257.97 297.298 1275.66 289.157V185.846H1275.38ZM1599.07 281.296H1541.52V380.396H1435.68V7.01837H1606.37C1640.05 7.01837 1669.53 12.6331 1694.52 24.1432C1719.5 35.0918 1738.59 51.0937 1752.07 72.1488C1765.54 92.6425 1772.28 117.066 1772.28 145.14C1772.28 172.09 1765.82 195.953 1753.19 216.166C1740.84 236.098 1722.87 251.819 1699.29 263.049L1779.86 380.396H1666.72L1599.07 281.296ZM1665.6 145.14C1665.6 127.734 1659.99 114.259 1649.04 104.714C1638.09 95.1691 1621.52 90.3966 1599.91 90.3966H1541.23V199.602H1599.91C1621.52 199.602 1638.09 195.111 1649.04 185.846C1660.27 176.021 1665.6 162.545 1665.6 145.14ZM2019.05 387.976C1979.46 387.976 1944.09 379.553 1912.37 362.99C1881.2 346.146 1856.22 323.126 1838.25 293.649C1820.57 264.171 1811.58 230.764 1811.58 193.988C1811.58 157.211 1820.57 123.804 1838.25 94.3269C1856.5 64.8497 1881.2 41.8295 1912.37 24.9854C1944.09 8.14131 1979.46 0 2019.05 0C2058.63 0 2094 8.42205 2125.16 24.9854C2156.89 41.8295 2181.59 64.8497 2199.28 94.3269C2217.52 123.804 2226.51 157.211 2226.51 193.988C2226.51 230.764 2217.52 264.171 2199.28 293.649C2181.59 323.126 2156.89 346.146 2125.16 362.99C2093.72 379.553 2058.35 387.976 2019.05 387.976ZM2019.05 300.386C2037.85 300.386 2054.98 295.894 2070.14 286.911C2085.3 277.927 2097.65 265.575 2106.35 249.573C2115.34 233.291 2119.83 214.481 2119.83 193.707C2119.83 172.933 2115.34 154.123 2106.35 138.122C2097.37 121.839 2085.3 109.206 2070.14 100.222C2054.98 91.2388 2037.85 86.7471 2019.05 86.7471C2000.24 86.7471 1983.11 91.2388 1967.95 100.222C1952.79 109.206 1940.44 121.839 1931.74 138.122C1922.75 154.123 1918.26 172.652 1918.26 193.707C1918.26 214.762 1922.75 233.291 1931.74 249.573C1940.72 265.575 1952.79 277.927 1967.95 286.911C1983.11 295.894 2000.24 300.386 2019.05 300.386Z" fill="#1E1E1E"/>
<path d="M49.1286 454.509H62.0424L110.61 574.102H94.3269L80.2902 539.011H30.0386L16.0019 574.102H0L49.1286 454.509ZM76.9213 527.22L55.3048 471.915L33.1267 527.22H76.9213ZM180.232 574.945C172.371 574.945 165.072 573.26 158.054 569.891C151.316 566.523 145.421 561.75 140.367 556.135C135.314 550.24 131.384 543.783 128.577 536.484C125.769 529.185 124.366 521.605 124.366 514.025C124.366 505.884 125.769 498.304 128.577 491.005C131.384 483.706 135.314 477.249 140.087 471.634C145.14 466.02 151.035 461.528 157.773 458.44C164.511 455.071 172.09 453.667 179.951 453.667C191.461 453.667 201.006 456.194 208.586 460.966C216.166 465.739 221.781 472.196 225.711 479.776L214.201 487.917C210.832 480.899 206.059 475.845 199.883 472.476C193.707 469.108 187.25 467.423 179.951 467.423C173.775 467.423 168.441 468.827 163.388 471.354C158.334 473.88 154.123 477.53 150.474 482.021C147.105 486.513 144.298 491.286 142.333 496.9C140.648 502.515 139.525 508.411 139.525 514.306C139.525 520.763 140.648 526.658 142.613 532.554C144.859 538.168 147.667 543.222 151.597 547.433C155.527 551.644 159.738 555.013 164.791 557.539C169.845 560.066 175.179 561.189 181.074 561.189C187.812 561.189 194.549 559.504 200.725 555.855C206.902 552.205 212.797 547.152 218.131 539.853V555.574C207.744 568.488 195.111 574.945 180.232 574.945ZM216.727 525.816H190.9V514.306H229.36V574.102H216.447V525.816H216.727ZM262.768 574.102V454.509H313.862C319.196 454.509 323.968 455.632 328.46 457.878C332.952 460.124 336.601 462.931 339.97 466.581C343.339 470.231 345.865 474.161 347.55 478.933C349.234 483.425 350.357 487.917 350.357 492.689C350.357 498.304 349.234 503.357 347.269 508.411C345.304 513.464 342.216 517.675 338.566 521.044C334.917 524.412 330.425 526.939 325.372 528.343L354.287 574.102H337.163L309.931 531.15H277.927V574.102H262.768ZM277.927 517.675H314.142C318.353 517.675 322.003 516.552 324.81 514.306C327.898 512.06 330.425 508.972 332.109 505.042C333.794 501.111 334.917 497.181 334.917 492.689C334.917 488.198 333.794 483.987 331.829 480.337C329.863 476.407 327.056 473.599 323.968 471.354C320.599 469.108 317.23 467.985 313.3 467.985H277.927V517.675ZM383.484 574.102V454.509H398.643V574.102H383.484ZM429.524 513.464C429.524 506.165 430.647 499.146 433.174 492.128C435.7 485.11 439.35 478.653 444.403 473.038C449.456 467.143 455.352 462.651 462.37 459.282C469.389 455.913 477.53 453.948 486.513 453.948C497.181 453.948 506.446 456.475 514.025 461.247C521.605 466.02 527.22 472.196 531.15 480.056L519.079 487.917C516.833 482.864 513.745 478.933 510.095 475.845C506.446 472.757 502.515 470.792 498.304 469.388C494.093 468.265 490.163 467.423 485.952 467.423C479.214 467.423 473.319 468.827 468.266 471.354C463.212 474.161 459.001 477.53 455.352 482.021C451.983 486.513 449.176 491.566 447.491 497.181C445.807 502.796 444.965 508.13 444.965 513.744C444.965 519.921 446.088 525.816 448.053 531.712C450.299 537.326 453.106 542.379 456.756 546.871C460.405 551.363 464.897 554.732 469.95 557.258C475.003 559.785 480.618 561.189 486.513 561.189C490.724 561.189 494.935 560.346 499.427 558.943C503.919 557.539 507.849 555.293 511.78 552.205C515.71 549.117 518.517 544.906 520.763 540.134L533.396 547.152C530.87 553.047 527.22 558.101 521.886 562.312C516.552 566.523 510.937 569.611 504.48 571.857C498.304 574.102 491.847 574.945 485.671 574.945C477.53 574.945 469.95 573.26 463.212 569.611C456.475 565.961 450.299 561.189 445.245 555.574C440.192 549.679 436.543 542.941 433.735 535.642C430.928 528.343 429.524 521.044 429.524 513.464ZM611.721 574.945C602.176 574.945 594.035 573.26 587.578 570.172C581.121 566.803 575.787 562.312 571.857 556.697C567.927 551.082 565.119 544.625 563.154 537.326C561.189 530.027 560.347 522.728 560.347 515.148V454.79H575.506V515.148C575.506 521.044 576.068 526.658 577.191 532.273C578.314 537.888 580.279 542.66 583.086 547.152C585.894 551.644 589.543 555.013 594.035 557.539C598.527 560.066 604.422 561.469 611.16 561.469C618.178 561.469 623.793 560.066 628.565 557.539C633.057 554.732 636.707 551.363 639.514 546.871C642.321 542.379 644.006 537.326 645.129 531.992C646.252 526.378 647.094 520.763 647.094 515.148V454.79H662.253V515.148C662.253 523.289 661.411 530.869 659.446 538.168C657.762 545.468 654.674 551.644 650.743 557.258C646.813 562.873 641.479 567.084 635.022 570.453C628.565 573.26 620.705 574.945 611.721 574.945ZM699.591 574.102V454.509H714.751V560.627H781.566V574.102H699.591ZM875.893 467.985H834.625V574.102H819.465V467.985H778.197V454.509H875.893V467.985ZM952.533 574.945C942.988 574.945 934.847 573.26 928.39 570.172C921.933 566.803 916.599 562.312 912.669 556.697C908.739 551.082 905.931 544.625 903.966 537.326C902.282 530.027 901.159 522.728 901.159 515.148V454.79H916.318V515.148C916.318 521.044 916.88 526.658 918.003 532.273C919.126 537.888 921.091 542.66 923.898 547.152C926.706 551.644 930.355 555.013 934.847 557.539C939.339 560.066 945.234 561.469 951.972 561.469C958.99 561.469 964.605 560.066 969.377 557.539C973.869 554.732 977.519 551.363 980.326 546.871C983.133 542.379 984.818 537.326 985.941 531.992C987.064 526.378 987.906 520.763 987.906 515.148V454.79H1003.07V515.148C1003.07 523.289 1002.22 530.869 1000.26 538.168C998.574 545.468 995.486 551.644 991.555 557.258C987.625 562.873 982.291 567.084 975.834 570.453C969.377 573.26 961.797 574.945 952.533 574.945ZM1040.4 574.102V454.509H1091.5C1096.83 454.509 1101.6 455.632 1106.1 457.878C1110.59 460.124 1114.24 462.931 1117.61 466.581C1120.97 470.231 1123.5 474.161 1125.19 478.933C1126.87 483.425 1127.99 487.917 1127.99 492.689C1127.99 498.304 1126.87 503.357 1124.9 508.411C1122.94 513.464 1119.85 517.675 1116.2 521.044C1112.55 524.412 1108.06 526.939 1103.01 528.343L1131.92 574.102H1114.8L1087.57 531.15H1055.84V574.102H1040.4ZM1055.56 517.675H1091.78C1095.99 517.675 1099.64 516.552 1102.45 514.306C1105.53 512.06 1108.06 508.972 1109.74 505.042C1111.43 501.111 1112.55 497.181 1112.55 492.689C1112.55 488.198 1111.43 483.987 1109.46 480.337C1107.5 476.407 1104.69 473.599 1101.6 471.354C1098.23 469.108 1094.87 467.985 1090.94 467.985H1055.84V517.675H1055.56ZM1242.25 560.627V574.102H1161.12V454.509H1240.85V467.985H1176.28V506.726H1232.43V519.359H1176.28V560.627H1242.25ZM1325.35 596V443.561H1338.26V596H1325.35ZM1429.22 574.102V454.509H1470.77C1483.68 454.509 1494.35 457.317 1502.77 462.651C1511.48 467.985 1517.93 475.003 1522.14 484.267C1526.36 493.251 1528.6 503.357 1528.6 514.306C1528.6 526.378 1526.36 537.045 1521.58 546.029C1516.81 555.013 1510.07 562.031 1501.65 566.803C1493.23 571.576 1482.84 574.102 1471.05 574.102H1429.22ZM1513.16 514.025C1513.16 505.042 1511.48 497.181 1508.11 490.163C1504.74 483.144 1499.97 477.81 1493.79 473.88C1487.61 469.95 1479.75 467.985 1470.77 467.985H1444.38V560.627H1470.77C1480.03 560.627 1487.61 558.662 1494.07 554.451C1500.25 550.24 1505.02 544.625 1508.39 537.888C1511.48 530.869 1513.16 523.009 1513.16 514.025ZM1560.04 574.102V454.509H1611.14C1616.47 454.509 1621.24 455.632 1625.74 457.878C1630.23 460.124 1633.88 462.931 1637.25 466.581C1640.61 470.231 1643.14 474.161 1644.83 478.933C1646.51 483.425 1647.63 487.917 1647.63 492.689C1647.63 498.304 1646.51 503.357 1644.54 508.411C1642.58 513.464 1639.49 517.675 1635.84 521.044C1632.19 524.412 1627.7 526.939 1622.65 528.343L1651.56 574.102H1634.44L1607.21 531.15H1575.48V574.102H1560.04ZM1575.2 517.675H1611.42C1615.63 517.675 1619.28 516.552 1622.09 514.306C1625.17 512.06 1627.7 508.972 1629.38 505.042C1631.07 501.111 1632.19 497.181 1632.19 492.689C1632.19 488.198 1631.07 483.987 1629.1 480.337C1627.14 476.407 1624.33 473.599 1621.24 471.354C1617.87 469.108 1614.51 467.985 1610.58 467.985H1575.48V517.675H1575.2ZM1729.33 574.945C1720.9 574.945 1713.32 573.26 1706.31 569.891C1699.29 566.523 1693.39 562.031 1688.34 556.135C1683.29 550.24 1679.64 543.783 1676.83 536.484C1674.02 529.185 1672.9 521.605 1672.9 514.025C1672.9 506.165 1674.3 498.585 1677.11 491.286C1679.92 483.987 1684.13 477.53 1689.18 471.915C1694.23 466.3 1700.41 461.809 1707.15 458.44C1713.89 455.071 1721.47 453.387 1729.61 453.387C1738.03 453.387 1745.61 455.071 1752.63 458.72C1759.37 462.089 1765.26 466.862 1770.31 472.757C1775.37 478.653 1779.02 485.11 1781.82 492.409C1784.63 499.708 1785.75 507.007 1785.75 514.587C1785.75 522.447 1784.35 530.308 1781.54 537.607C1778.74 544.906 1774.81 551.363 1769.47 556.978C1764.42 562.592 1758.52 567.084 1751.5 570.172C1744.49 573.26 1737.47 574.945 1729.33 574.945ZM1688.34 514.306C1688.34 520.482 1689.18 526.378 1691.15 531.992C1693.11 537.607 1695.92 542.66 1699.57 546.871C1703.22 551.363 1707.43 554.732 1712.48 557.258C1717.54 559.785 1723.15 561.189 1729.33 561.189C1735.78 561.189 1741.4 559.785 1746.45 557.258C1751.5 554.451 1755.72 551.082 1759.37 546.59C1763.01 542.099 1765.54 537.045 1767.51 531.431C1769.47 525.816 1770.31 520.201 1770.31 514.306C1770.31 508.13 1769.19 502.515 1767.23 496.9C1765.26 491.286 1762.45 486.232 1758.8 482.021C1755.15 477.53 1750.94 474.161 1745.89 471.634C1740.84 469.108 1735.5 467.704 1729.33 467.704C1722.87 467.704 1717.25 469.108 1712.2 471.634C1707.15 474.161 1702.94 477.81 1699.29 482.302C1695.92 486.794 1693.11 491.847 1691.15 497.462C1689.18 502.796 1688.34 508.411 1688.34 514.306ZM1832.08 482.583V574.102H1816.92V454.509H1829.83L1902.82 547.994V454.79H1917.98V574.102H1904.22L1832.08 482.583ZM2037.85 560.627V574.102H1956.72V454.509H2036.45V467.985H1971.88V506.726H2028.03V519.359H1971.88V560.627H2037.85ZM2138.92 479.495C2137.52 477.81 2135.83 476.407 2133.58 475.003C2131.34 473.599 2128.81 472.196 2126 471.073C2123.2 469.95 2120.11 468.827 2116.74 468.265C2113.37 467.423 2110 467.142 2106.35 467.142C2097.09 467.142 2090.35 468.827 2085.86 472.476C2081.37 475.845 2079.4 480.618 2079.4 486.794C2079.4 491.005 2080.53 494.374 2082.77 496.9C2085.02 499.427 2088.39 501.392 2093.16 503.077C2097.93 504.761 2103.83 506.165 2111.13 507.849C2119.55 509.533 2126.57 511.779 2132.74 514.306C2138.92 516.833 2143.41 520.482 2146.78 524.693C2150.15 528.904 2151.55 534.8 2151.55 541.818C2151.55 547.433 2150.43 552.486 2148.18 556.697C2145.94 560.908 2143.13 564.277 2139.2 567.084C2135.27 569.891 2130.78 571.857 2125.44 573.26C2120.11 574.383 2114.49 575.225 2108.32 575.225C2102.14 575.225 2096.25 574.664 2090.35 573.26C2084.74 571.857 2079.12 569.891 2074.07 567.646C2069.02 565.4 2063.96 562.031 2059.47 558.381L2066.77 545.468C2068.45 547.433 2070.98 549.398 2073.79 551.082C2076.6 552.767 2079.96 554.451 2083.61 556.135C2087.26 557.82 2091.19 558.943 2095.69 560.066C2099.9 560.908 2104.39 561.469 2108.88 561.469C2117.3 561.469 2124.04 560.066 2128.81 556.978C2133.58 553.89 2135.83 549.398 2135.83 543.222C2135.83 538.73 2134.43 535.08 2131.9 532.554C2129.37 529.746 2125.44 527.501 2120.39 525.816C2115.34 524.132 2108.88 522.167 2101.58 520.482C2093.44 518.517 2086.7 516.271 2081.09 514.025C2075.47 511.499 2071.54 508.411 2068.73 504.48C2065.93 500.55 2064.8 495.497 2064.8 489.04C2064.8 481.46 2066.77 475.003 2070.42 469.669C2074.07 464.335 2079.12 460.405 2085.86 457.598C2092.32 454.79 2099.62 453.667 2108.04 453.667C2113.37 453.667 2118.43 454.229 2122.92 455.352C2127.69 456.475 2131.9 458.159 2136.11 460.124C2140.32 462.089 2143.97 464.616 2147.34 467.423L2138.92 479.495Z" fill="#1E1E1E"/>
</svg>
