<?xml version="1.0" encoding="UTF-8"?>
<svg width="5631px" height="788px" viewBox="0 0 5631 788" version="1.1" xmlns="http://www.w3.org/2000/svg" xmlns:xlink="http://www.w3.org/1999/xlink">
    <!-- Generator: Sketch 57.1 (83088) - https://sketch.com -->
    <title>logo-white-wFlag2</title>
    <desc>Created with Sketch.</desc>
    <g id="Page-1" stroke="none" stroke-width="1" fill="none" fill-rule="evenodd">
        <g id="logo-white-wFlag2">
            <path d="M394,700.17 C507.36,700.17 606.28,638.49 659.07,546.8 L621.28,525.13 C575.71,603.48 491.28,656.27 394,656.27 C249,656.27 131.7,538.46 131.7,394 C131.7,249 249,131.14 394,131.14 C491.25,131.14 575.71,183.93 621.28,262.29 L659.07,240.61 C606.26,148.92 507.34,87.24 394,87.24 C225.05,87.24 87.8,224.5 87.8,394 C87.8,562.91 225.05,700.17 394,700.17 Z" id="Path" fill="#5FAD3D"></path>
            <rect id="Rectangle" fill="#FFFFFF" fill-rule="nonzero" x="415.66" y="262.29" width="22.23" height="22.23"></rect>
            <rect id="Rectangle" fill="#024597" fill-rule="nonzero" x="415.66" y="306.18" width="22.23" height="175.04"></rect>
            <path d="M481.23,262.29 L503.45,262.29 L503.45,306.18 L590.7,306.18 L590.7,327.86 L503.45,327.86 L503.45,437.33 C503.45,449.55 512.9,459.55 525.13,459.55 L590.7,459.55 L590.7,481.23 L525.13,481.23 C502.34,481.23 481.23,462.89 481.23,437.33 L481.23,327.86 L448.44,327.86 L448.44,306.18 L481.23,306.18 L481.23,262.29 Z" id="Path" fill="#024597"></path>
            <path d="M369,371.76 L222.83,371.76 C223.39,355.64 227.28,344.53 235.06,338.41 C240.06,333.97 246.73,331.19 256.17,329.52 C265.06,327.3 278.4,326.74 296.17,326.74 C313.4,326.74 326.73,327.3 336.17,329.52 C345.06,331.19 352.29,333.97 357.29,338.41 C365.096667,344.53 369,355.646667 369,371.76 Z M222.83,394 L394,394 C394,374.546667 392.89,360.1 390.67,350.66 C388.621185,341.585058 384.64084,333.058185 379,325.66 C371.78,317.33 362.88,311.22 351.22,308.44 C340.1,305.66 321.22,303.99 295.65,303.99 C269.53,303.99 251.19,305.66 239.52,308.44 C228.740962,310.896635 219.129981,316.974531 212.29,325.66 C206.224122,332.793231 202.192766,341.429385 200.62,350.66 C198.4,360.11 197.29,374.55 196.73,394 C197.29,412.9 198.4,427.34 200.62,436.79 C202.192766,446.020615 206.224122,454.656769 212.29,461.79 C219.12374,470.47096 228.728052,476.545573 239.5,479 C251.17,482.34 269.5,483.45 295.63,483.45 C321.19,483.45 340.08,482.34 351.2,479 C362.86,476.23 371.76,470.11 378.98,461.78 C383.388417,456.110342 386.772608,449.714221 388.98,442.88 L362.86,442.88 C361.180697,445.239993 359.325412,447.469678 357.31,449.55 C352.31,453.44 345.08,456.78 336.19,458.44 C326.74,460.11 313.41,460.67 296.19,460.67 C278.41,460.67 265.07,460.11 256.19,458.44 C246.75,456.78 240.08,453.44 235.08,449.55 C228.41,444 224.52,434.55 223.41,421.77 C222.83,412.88 222.83,402.87 222.83,394 Z" id="Shape" fill="#024597" fill-rule="nonzero"></path>
            <path d="M394,787.41 C611.28,787.41 788,611.26 788,393.98 C788,176.15 611.26,0 394,0 C322.3,0 255.06,18.89 197.27,52.79 L218.94,90.58 C270.62,60.58 330.08,43.9 393.94,43.9 C587.36,43.9 744.07,200.6 744.07,394 C744.07,586.83 587.36,744.09 393.98,744.09 C200.6,744.09 43.9,586.81 43.9,394 L0,394 C0,611.26 176.71,787.41 394,787.41 Z" id="Path" fill="#024597"></path>
            <path d="M1075.17,421.49 L1097.85,421.49 C1097.25,437.37 1096.31,448.303333 1095.03,454.29 C1092.21,467.27 1083.54333,475.27 1069.03,478.29 C1057.24333,480.676667 1036.27333,481.87 1006.12,481.87 C966.986667,481.87 940.55,480.503333 926.81,477.77 C913.743333,475.103333 904.943333,468.25 900.41,457.21 C895.876667,446.17 893.613333,425.99 893.619985,396.67 C893.619985,368.743333 895.33,348.456667 898.75,335.81 C902.85,320.863333 913.396667,312.15 930.39,309.67 C946.79,307.19 970.836667,305.95 1002.53,305.95 C1032.77,305.95 1054.43667,307.446667 1067.53,310.44 C1073.7899,311.772354 1079.59625,314.708262 1084.38,318.96 C1088.85361,322.777136 1092.0041,327.912428 1093.38,333.63 C1094.67333,338.843333 1095.4,349.05 1095.56,364.25 L1073.91,364.25 C1073.83,361.25 1073.78,359.25 1073.78,358.25 C1073.78,349.876667 1072.97,343.92 1071.35,340.38 C1069.73,336.84 1066.56667,334.126667 1061.86,332.24 C1053.23333,328.74 1033.07667,326.99 1001.39,326.99 C978.41,326.99 961.153333,327.606667 949.62,328.84 C938.086667,330.073333 930.57,332.073333 927.07,334.84 C923.736667,337.58 921.28,343.216667 919.7,351.75 C918.12,360.283333 917.33,372.156667 917.33,387.37 C917.33,394.55 917.63,403.82 918.23,415.18 C918.83,426.54 919.43,434.356667 920.03,438.63 C920.97,445.383333 923.126667,450.273333 926.5,453.3 C929.873333,456.326667 935.19,458.183333 942.45,458.87 C955.69,460.243333 974.61,460.926667 999.21,460.92 C1006.71667,460.92 1016.56333,460.686667 1028.75,460.22 C1040.93667,459.753333 1048.68667,459.303333 1052,458.87 C1058.49333,458.023333 1063.32,456.72 1066.48,454.96 C1069.60094,453.249665 1071.93782,450.396655 1073,447 C1074.1,443.92 1074.82333,435.416667 1075.17,421.49 Z" id="Path" fill="#024597" fill-rule="nonzero"></path>
            <polygon id="Path" fill="#024597" fill-rule="nonzero" points="1122 306.43 1141.22 306.43 1141.22 481.32 1122 481.32"></polygon>
            <path d="M1166.62,306.43 L1185.84,306.43 L1185.84,329.23 L1166.62,329.23 L1166.62,306.43 Z M1166.62,359.73 L1185.84,359.73 L1185.84,481.32 L1166.62,481.32 L1166.62,359.73 Z" id="Shape" fill="#024597" fill-rule="nonzero"></path>
            <path d="M1214.3,359.73 L1233.65,359.73 L1233.65,375.73 C1239.72333,368.396667 1245.83,363.636667 1251.97,361.45 C1258.11,359.263333 1268.61667,358.173333 1283.49,358.17997 C1303.40333,358.17997 1317.69,359.633333 1326.35,362.54 C1334.95339,365.385949 1342.16222,371.380214 1346.53,379.32 C1350.18573,371.630187 1356.7249,365.691036 1364.73,362.79 C1372.93,359.723333 1385.74333,358.186667 1403.17,358.17997 C1419.74333,358.17997 1432.14667,359.246667 1440.38,361.38 C1448.61333,363.513333 1455.3,367.356667 1460.44,372.91 C1464.25479,377.135513 1466.90488,382.280625 1468.13,387.84 C1469.33,393.346667 1469.92667,403.193333 1469.92006,417.38 L1469.92006,481.31 L1450.7,481.31 L1450.7,412.9 C1450.7,397.953333 1448.48,388.286667 1444.04,383.9 C1438.04,378.013333 1424.37333,375.066667 1403.04,375.06 C1390.82,375.06 1381.51,375.873333 1375.11,377.5 C1368.71,379.126667 1363.84,381.86 1360.5,385.7 C1357.16667,389.626667 1354.90333,394.856667 1353.71,401.39 C1352.51667,407.923333 1351.91667,418.59 1351.91,433.39 L1351.91,481.31 L1332.69,481.31 L1332.69,412.9 C1332.69,404.273333 1332.22333,397.91 1331.29,393.81 C1330.55981,390.106894 1328.72612,386.711427 1326.03,384.07 C1319.79667,378.07 1306.04333,375.07 1284.77,375.07 C1272.47,375.07 1263.01,375.903333 1256.39,377.57 C1249.77,379.236667 1244.66667,382.076667 1241.08,386.09 C1238.00667,389.596667 1235.98,394.38 1235,400.44 C1234.02,406.5 1233.52667,417.476667 1233.52,433.37 L1233.52,481.29 L1214.3,481.29 L1214.3,359.73 Z" id="Path" fill="#024597" fill-rule="nonzero"></path>
            <path d="M1511.05,396.24 L1491.05,396.24 C1490.88,394.02 1490.8,392.24 1490.8,390.99 C1490.8,378.256667 1495.58333,369.59 1505.15,364.99 C1514.71667,360.39 1532.65333,358.083333 1558.96,358.07 C1579.62667,358.07 1594.49,359.01 1603.55,360.89 C1612.61,362.77 1619.7,366.356667 1624.82,371.65 C1629.00588,375.774269 1631.90034,381.028093 1633.15,386.77 C1634.43,392.583333 1635.07,402.75 1635.07,417.27 L1635.07,481.33 L1616,481.33 L1616.38,467.11 L1615.38,467.11 C1610.59333,473.776667 1604.85,478.07 1598.15,479.99 C1591.45,481.91 1578.78333,482.87 1560.15,482.87 C1538.88333,482.87 1524.10667,482.356667 1515.82,481.33 C1507.53333,480.303333 1501.25667,478.17 1496.99,474.93 C1493.00599,472.215957 1489.90758,468.390759 1488.08,463.93 C1486.42,459.663333 1485.58667,453.683333 1485.58,445.99 C1485.58,436.59 1486.84,429.37 1489.36,424.33 C1491.88,419.29 1496.12,415.513333 1502.08,413 C1508.57333,410.18 1523.73667,408.77 1547.57,408.77 C1572.51,408.77 1588.82333,409.516667 1596.51,411.01 C1604.19667,412.503333 1610.13333,416.113333 1614.32,421.84 L1616,421.84 L1616,408.8 C1616,398.133333 1614.07667,390.446667 1610.23,385.74 C1606.81667,381.553333 1601.62667,378.713333 1594.66,377.22 C1587.69333,375.726667 1576.31,374.986667 1560.51,375 C1539.75,375 1526.32,376.22 1520.22,378.66 C1514.12,381.1 1511.06333,386.416667 1511.05,394.61 L1511.05,396.24 Z M1560.25,425.839903 C1544.45,425.839903 1533.39,426.116667 1527.07,426.67 C1520.75,427.223333 1516.26333,428.27 1513.61,429.81 C1508.57,432.81 1506.05,438.32 1506.05,446.34 C1506.05,454.36 1509.05,459.743333 1515.05,462.49 C1519.92333,464.79 1536.32333,465.943333 1564.25,465.95 C1584.67,465.95 1598.16667,464.616667 1604.74,461.95 C1611.31333,459.283333 1614.60333,453.903333 1614.61,445.81 C1614.61,437.95 1610.94333,432.653333 1603.61,429.92 C1596.27667,427.186667 1581.82333,425.826667 1560.25,425.839903 L1560.25,425.839903 Z" id="Shape" fill="#024597" fill-rule="nonzero"></path>
            <path d="M1671,329.62 L1690.22,329.62 L1690.22,359.73 L1775.3,359.73 L1775.3,376.13 L1690.22,376.13 L1690.22,428.92 C1690.4,440.446667 1690.7,447.493333 1691.12,450.06 C1691.68271,452.899031 1692.96343,455.546544 1694.84,457.75 C1697.22,460.743333 1700.80667,462.856667 1705.6,464.09 C1710.39333,465.323333 1717.39333,465.943333 1726.6,465.95 C1735.22667,465.95 1741.50667,465.35 1745.44,464.15 C1749.1711,463.094778 1752.42622,460.78936 1754.66,457.62 C1756.18391,455.208703 1757.16967,452.497015 1757.55,449.67 C1758.12757,444.481123 1758.36141,439.259734 1758.25,434.04 L1758.25,426.35 L1777.34,426.35 L1777.34,434 C1777.34,443.333333 1776.89333,450.403333 1776,455.21 C1775.23051,459.771784 1773.52839,464.125825 1771,468 C1767.42,473.293333 1762.08667,477.093333 1755,479.4 C1747.91333,481.706667 1737.96,482.86 1725.14,482.86 C1711.99333,482.86 1701.72333,481.793333 1694.33,479.66 C1686.93667,477.526667 1681.44667,474.023333 1677.86,469.15 C1675.17007,465.455192 1673.33266,461.210022 1672.48,456.72 C1671.54,452.053333 1671.07,444.92 1671.07,435.32 L1671.07,376.13 L1641.22,376.13 L1641.22,359.73 L1671,359.73 L1671,329.62 Z" id="Path" fill="#024597" fill-rule="nonzero"></path>
            <path d="M1926.26,443.78 L1946.37,443.78 C1946.03,458.3 1940.90667,468.443333 1931,474.21 C1921.09333,479.976667 1903.83667,482.86 1879.23,482.86 C1858.91,482.86 1843.47333,482.07 1832.92,480.49 C1822.36667,478.91 1814.4,476.243333 1809.02,472.49 C1796.72,463.776667 1790.57,446.563333 1790.57,420.85 C1790.57,402.85 1793.17333,389.313333 1798.38,380.24 C1803.02156,371.866241 1810.71068,365.602497 1819.85,362.75 C1829.18333,359.716667 1844.79333,358.2 1866.68,358.2 C1887.60667,358.2 1902.72333,359.31 1912.03,361.53 C1921.33667,363.75 1928.77,368.02 1934.33,374.34 C1938.93618,379.632433 1942.18926,385.963588 1943.81,392.79 C1945.52333,399.803333 1946.46333,410.47 1946.63,424.79 L1811.2,424.79 C1811.71333,439.91 1814.71333,450.286667 1820.2,455.92 C1823.86667,459.773333 1829.74,462.4 1837.82,463.8 C1845.9,465.2 1859.03,465.906667 1877.21,465.92 C1890.97,465.92 1901.05,465.276667 1907.45,463.99 C1913.85,462.703333 1918.63333,460.37 1921.8,456.99 C1924.17333,454.33 1925.66,449.926667 1926.26,443.78 Z M1925.36,408.42 C1925.28,396.546667 1922.12,388.26 1915.88,383.56 C1911.78,380.4 1906.03333,378.2 1898.64,376.96 C1891.24667,375.72 1880.42,375.1 1866.16,375.1 C1853.68667,375.1 1844.18333,375.676667 1837.65,376.83 C1831.11667,377.983333 1826.01333,380.013333 1822.34,382.92 C1816.28,387.62 1812.78,396.12 1811.84,408.42 L1925.36,408.42 Z" id="Shape" fill="#024597" fill-rule="nonzero"></path>
            <polygon id="Path" fill="#024597" fill-rule="nonzero" points="1960.23 407.9 2063.12 407.9 2063.12 430.58 1960.23 430.58"></polygon>
            <polygon id="Path" fill="#024597" fill-rule="nonzero" points="2076.19 306.43 2099.51 306.43 2099.51 381.64 2129.88 381.64 2243.27 306.43 2284.14 306.43 2154.14 391.76 2290.98 481.32 2249.73 481.32 2129.93 402.14 2099.56 402.14 2099.56 481.32 2076.24 481.32"></polygon>
            <polygon id="Path" fill="#024597" fill-rule="nonzero" points="2302.34 306.43 2325.66 306.43 2325.66 481.32 2302.34 481.32"></polygon>
            <path d="M2529.9,421.49 L2552.57,421.49 C2551.97667,437.37 2551.04,448.303333 2549.76,454.29 C2546.94,467.27 2538.27333,475.27 2523.76,478.29 C2511.97333,480.676667 2491,481.87 2460.84,481.87 C2421.72,481.87 2395.28333,480.503333 2381.53,477.77 C2368.45667,475.103333 2359.66,468.25 2355.14,457.21 C2350.62,446.17 2348.35667,425.99 2348.35,396.67 C2348.35,368.743333 2350.05667,348.456667 2353.47,335.81 C2357.57,320.863333 2368.12,312.15 2385.12,309.67 C2401.52,307.19 2425.56667,305.95 2457.26,305.95 C2487.49333,305.95 2509.16,307.446667 2522.26,310.44 C2528.51898,311.774963 2534.32469,314.710549 2539.11,318.96 C2543.58045,322.779837 2546.73026,327.914022 2548.11,333.63 C2549.39,338.843333 2550.11667,349.05 2550.29,364.25 L2528.63,364.25 C2528.55,361.263333 2528.51,359.263333 2528.51,358.25 C2528.51,349.876667 2527.69667,343.92 2526.07,340.38 C2524.44333,336.84 2521.28333,334.126667 2516.59,332.24 C2507.95667,328.74 2487.79667,326.99 2456.11,326.99 C2433.13,326.99 2415.87667,327.606667 2404.35,328.84 C2392.82333,330.073333 2385.30667,332.073333 2381.8,334.84 C2378.46667,337.58 2376.01,343.216667 2374.43,351.75 C2372.85,360.283333 2372.04,372.123333 2372,387.27 C2372,394.45 2372.3,403.72 2372.9,415.08 C2373.5,426.44 2374.09667,434.256667 2374.69,438.53 C2375.63,445.283333 2377.79,450.173333 2381.17,453.2 C2384.53,456.2 2389.86,458.09 2397.11,458.77 C2410.36333,460.143333 2429.28333,460.826667 2453.87,460.82 C2461.39,460.82 2471.23667,460.586667 2483.41,460.12 C2495.58333,459.653333 2503.33333,459.203333 2506.66,458.77 C2513.15333,457.923333 2517.98,456.62 2521.14,454.86 C2524.25195,453.171752 2526.59407,450.349744 2527.68,446.98 C2528.82,443.913333 2529.56,435.416667 2529.9,421.49 Z" id="Path" fill="#024597" fill-rule="nonzero"></path>
            <path d="M4304.51,561.73 C4304.52107,562.763229 4304.45757,563.795911 4304.32,564.82 C4304.22496,565.592207 4303.99121,566.340895 4303.63,567.03 C4303.36731,567.542436 4302.97842,567.979512 4302.5,568.3 C4302.07212,568.568974 4301.57534,568.707932 4301.07,568.700322 L4240.12,568.700322 C4238.5652,568.684205 4237.06102,568.145238 4235.85,567.17 C4234.51667,566.163333 4233.85,564.383333 4233.85,561.83 L4233.85,448.55 C4233.85,446.003333 4234.51667,444.223333 4235.85,443.21 C4237.06102,442.234762 4238.5652,441.695795 4240.12,441.679599 L4300.39,441.679599 C4300.89233,441.671105 4301.38617,441.810216 4301.81,442.08 C4302.26303,442.393596 4302.61142,442.836047 4302.81,443.35 C4303.10423,444.060009 4303.31562,444.801571 4303.44,445.56 C4303.6198,446.647196 4303.70346,447.748119 4303.69,448.85 C4303.69882,449.885389 4303.61516,450.919497 4303.44,451.94 C4303.32118,452.683519 4303.10953,453.409188 4302.81,454.1 C4302.60017,454.596604 4302.25332,455.023225 4301.81,455.33 C4301.38346,455.592565 4300.89081,455.72787 4300.39,455.72 L4250.73,455.72 L4250.73,495.57 L4293.33,495.57 C4293.8369,495.569915 4294.33196,495.723311 4294.75,496.01 C4295.19919,496.332164 4295.56863,496.752919 4295.83,497.24 C4296.16751,497.916522 4296.38089,498.648113 4296.46,499.4 C4296.60724,500.473514 4296.6741,501.556527 4296.66,502.64 C4296.67231,503.643703 4296.60544,504.646813 4296.46,505.64 C4296.37036,506.361044 4296.15725,507.061271 4295.83,507.71 C4295.58085,508.176276 4295.20691,508.564062 4294.75,508.83 C4294.31279,509.062022 4293.82496,509.182261 4293.33,509.18 L4250.73,509.18 L4250.73,554.62 L4301.07,554.62 C4301.57378,554.613518 4302.06926,554.748649 4302.5,555.01 C4302.9662,555.327698 4303.35288,555.748597 4303.63,556.24 C4303.9975,556.908614 4304.23182,557.642159 4304.32,558.4 C4304.46304,559.504013 4304.52654,560.616881 4304.51,561.73 L4304.51,561.73 Z" id="Path" fill="#2D2D2D" fill-rule="nonzero"></path>
            <path d="M4406.42,566.25 C4406.43165,566.71306 4406.3139,567.170189 4406.08,567.57 C4405.76708,567.990959 4405.3403,568.313646 4404.85,568.5 C4404.11006,568.799726 4403.33304,568.998185 4402.54,569.09 C4401.38574,569.234021 4400.22316,569.300836 4399.06,569.29 C4397.83026,569.304717 4396.6009,569.237904 4395.38,569.09 C4394.59879,569.004086 4393.83417,568.805352 4393.11,568.5 C4392.64803,568.311268 4392.25407,567.987033 4391.98,567.57 C4391.777,567.160279 4391.67744,566.707079 4391.69,566.25 L4391.69,554.56 C4386.66333,560.133333 4381.69,564.193333 4376.77,566.74 C4372.18183,569.210209 4367.06068,570.524818 4361.85,570.57 C4356.72993,570.710973 4351.64491,569.685077 4346.98,567.57 C4343.12059,565.74288 4339.76907,562.99573 4337.22,559.57 C4334.66166,556.042381 4332.83886,552.036297 4331.86,547.79 C4330.69234,542.424064 4330.15205,536.940637 4330.25,531.45 L4330.25,477.9 C4330.23338,477.436387 4330.35147,476.977892 4330.59,476.58 C4330.92737,476.125137 4331.38934,475.777794 4331.92,475.58 C4332.73257,475.2453 4333.59344,475.042741 4334.47,474.98 C4335.52,474.89 4336.82,474.84 4338.39,474.84 C4339.96,474.84 4341.28,474.89 4342.32,474.98 C4343.1811,475.038292 4344.02624,475.241126 4344.82,475.58 C4345.34125,475.794641 4345.79905,476.138851 4346.15,476.58 C4346.41848,476.966651 4346.55524,477.429521 4346.54,477.9 L4346.54,529.34 C4346.44384,533.506167 4346.82295,537.669717 4347.67,541.75 C4348.30212,544.609672 4349.46929,547.324023 4351.11,549.75 C4352.60444,551.907258 4354.61114,553.659688 4356.95,554.85 C4359.51155,556.10604 4362.33786,556.726868 4365.19,556.66 C4369.58724,556.54891 4373.83386,555.035264 4377.31,552.34 C4382.11646,548.700161 4386.42633,544.447443 4390.13,539.69 L4390.13,477.9 C4390.11338,477.436387 4390.23147,476.977892 4390.47,476.58 C4390.80303,476.125041 4391.26187,475.777434 4391.79,475.58 C4392.59001,475.249567 4393.43704,475.047091 4394.3,474.98 C4395.3,474.89 4396.63,474.84 4398.3,474.84 C4399.97,474.84 4401.18,474.89 4402.22,474.98 C4403.0691,475.032477 4403.90209,475.235644 4404.68,475.58 C4405.18494,475.817606 4405.63457,476.158238 4406,476.58 C4406.30352,476.951757 4406.46323,477.42026 4406.45076,477.9 L4406.42,566.25 Z" id="Path" fill="#2D2D2D" fill-rule="nonzero"></path>
            <path d="M4488.59,483.7 C4488.59,485.13 4488.59,486.34 4488.49,487.33 C4488.4559,488.109875 4488.3249,488.882478 4488.1,489.63 C4487.94701,490.104368 4487.69475,490.540714 4487.36,490.91 C4487.02803,491.213079 4486.589,491.371419 4486.14,491.35 C4485.4788,491.319633 4484.82844,491.170594 4484.22,490.91 C4483.46,490.61 4482.61,490.32 4481.67,490.03 C4480.73,489.74 4479.67,489.46 4478.48,489.19 C4477.22118,488.921995 4475.93701,488.791231 4474.65,488.8 C4472.99579,488.80703 4471.35994,489.147124 4469.84,489.8 C4468.01268,490.609155 4466.32509,491.702711 4464.84,493.04 C4462.8263,494.851756 4461.0004,496.861921 4459.39,499.04 C4457.5,501.53 4455.39,504.57 4453.12,508.16 L4453.12,566.28 C4453.13161,566.751502 4452.99138,567.214252 4452.72,567.6 C4452.38224,568.016852 4451.94082,568.337572 4451.44,568.53 C4450.65562,568.842397 4449.83061,569.041073 4448.99,569.12 C4447.66184,569.266237 4446.32613,569.333023 4444.99,569.32 C4443.67717,569.332457 4442.36478,569.265669 4441.06,569.12 C4440.20113,569.033934 4439.35727,568.835575 4438.55,568.53 C4438.04312,568.354114 4437.6007,568.030137 4437.28,567.6 C4437.04147,567.202108 4436.92338,566.743613 4436.94,566.28 L4436.94,477.9 C4436.92744,477.442921 4437.027,476.989721 4437.23,476.58 C4437.51326,476.135098 4437.92466,475.786451 4438.41,475.58 C4439.12297,475.250815 4439.88764,475.047806 4440.67,474.98 C4441.59,474.89 4442.79,474.84 4444.3,474.84 C4445.81,474.84 4446.93,474.89 4447.88,474.98 C4448.64887,475.033231 4449.39977,475.237097 4450.09,475.58 C4450.54352,475.814829 4450.93176,476.158407 4451.22,476.58 C4451.4539,476.979811 4451.57165,477.43694 4451.56,477.9 L4451.56,490.76 C4453.60775,487.706207 4455.89139,484.817384 4458.39,482.12 C4460.19855,480.162579 4462.20983,478.402715 4464.39,476.87 C4466.11274,475.678395 4468.02232,474.782751 4470.04,474.22 C4471.8805,473.733676 4473.77633,473.488293 4475.68,473.489991 C4476.64526,473.489991 4477.60986,473.540712 4478.57,473.64 C4479.71053,473.741071 4480.84305,473.918131 4481.96,474.17 C4483.03982,474.404051 4484.10498,474.701228 4485.15,475.06 C4485.87003,475.273774 4486.54696,475.61224 4487.15,476.06 C4487.48184,476.304595 4487.75229,476.622972 4487.94,476.989991 C4488.09062,477.354425 4488.20452,477.732966 4488.28,478.12 C4488.39818,478.780506 4488.46505,479.449171 4488.48,480.12 C4488.57,481 4488.59,482.19 4488.59,483.7 Z" id="Path" fill="#2D2D2D" fill-rule="nonzero"></path>
            <path d="M4586.78,521.09 C4586.84749,527.823107 4585.88641,534.52704 4583.93,540.97 C4582.20714,546.715337 4579.31683,552.043176 4575.44,556.62 C4571.57713,561.078613 4566.74324,564.591993 4561.31,566.89 C4555.07172,569.453099 4548.37293,570.705718 4541.63,570.57 C4535.14749,570.70648 4528.69859,569.603378 4522.63,567.32 C4517.43695,565.313202 4512.80557,562.081532 4509.13,557.9 C4505.40145,553.535535 4502.65595,548.419693 4501.08,542.9 C4499.22944,536.397536 4498.33672,529.660022 4498.43,522.9 C4498.3615,516.173722 4499.30539,509.475417 4501.23,503.03 C4502.92744,497.284421 4505.80168,491.954829 4509.67,487.38 C4513.50853,482.926992 4518.33308,479.430993 4523.76,477.17 C4530.02068,474.628481 4536.73471,473.393209 4543.49,473.54 C4549.97077,473.403249 4556.41849,474.499362 4562.49,476.77 C4567.6775,478.786658 4572.30416,482.020862 4575.98,486.2 C4579.7195,490.564671 4582.48138,495.679255 4584.08,501.2 C4585.9568,507.660392 4586.86666,514.363076 4586.78,521.09 Z M4570,522.17 C4570.02096,517.619248 4569.57192,513.078497 4568.66,508.62 C4567.8798,504.656837 4566.3855,500.868559 4564.25,497.44 C4562.19347,494.216383 4559.32379,491.591596 4555.93,489.83 C4547.83865,486.182632 4538.58857,486.095572 4530.43,489.59 C4527.016,491.239856 4524.06966,493.718629 4521.86,496.8 C4519.51288,500.117582 4517.81624,503.850199 4516.86,507.8 C4515.73086,512.359496 4515.17987,517.042942 4515.22,521.74 C4515.19569,526.320683 4515.64474,530.89162 4516.56,535.38 C4517.33345,539.340598 4518.84653,543.119911 4521.02,546.52 C4523.11952,549.712654 4526.00085,552.315151 4529.39,554.08 C4533.45144,556.070128 4537.93972,557.031657 4542.46,556.88 C4546.72709,556.984726 4550.96164,556.112504 4554.84,554.33 C4558.2633,552.69156 4561.22549,550.227646 4563.46,547.16 C4565.80805,543.849217 4567.48931,540.113095 4568.41,536.16 C4569.50016,531.577486 4570.03401,526.880278 4570,522.17 L4570,522.17 Z" id="Shape" fill="#2D2D2D" fill-rule="nonzero"></path>
            <path d="M4692.51,520.7 C4692.59926,527.713333 4691.7586,534.707563 4690.01,541.5 C4688.58005,547.14548 4686.08167,552.464702 4682.65,557.17 C4679.49728,561.382795 4675.38287,564.780612 4670.65,567.08 C4665.52084,569.478248 4659.91123,570.672 4654.25,570.57 C4651.80444,570.585338 4649.36518,570.320274 4646.98,569.78 C4644.71168,569.238046 4642.52098,568.411492 4640.46,567.32 C4638.21086,566.134142 4636.08969,564.72003 4634.13,563.1 C4632.03,561.4 4629.80667,559.4 4627.46,557.1 L4627.46,601.27 C4627.47334,601.760393 4627.33352,602.242755 4627.06,602.65 C4626.73771,603.098848 4626.29349,603.44589 4625.78,603.65 C4624.99562,603.962397 4624.17061,604.161073 4623.33,604.24 C4622.00186,604.386523 4620.66613,604.453309 4619.33,604.44 C4618.01717,604.452457 4616.70478,604.385669 4615.4,604.24 C4614.54113,604.153934 4613.69727,603.955575 4612.89,603.65 C4612.36942,603.463213 4611.92369,603.112239 4611.62,602.65 C4611.38407,602.229167 4611.26657,601.75227 4611.28,601.27 L4611.28,477.9 C4611.26156,477.410273 4611.36102,476.923282 4611.57,476.48 C4611.8526,476.050724 4612.26657,475.724462 4612.75,475.55 C4613.46798,475.254266 4614.22656,475.068835 4615,475 C4615.92,474.91 4617,474.86 4618.33,474.86 C4619.66,474.86 4620.84,474.91 4621.72,475 C4622.47993,475.072335 4623.22481,475.257712 4623.93,475.55 C4624.94139,475.865937 4625.59529,476.844707 4625.5,477.9 L4625.5,489.78 C4627.95008,487.249876 4630.53731,484.856269 4633.25,482.61 C4635.58694,480.691533 4638.10168,479.00053 4640.76,477.56 C4643.22112,476.249055 4645.82491,475.225658 4648.52,474.51 C4651.26345,473.824955 4654.0824,473.488966 4656.91,473.50907 C4663.31667,473.50907 4668.78,474.75 4673.3,477.23 C4677.7522,479.674602 4681.53097,483.18199 4684.3,487.44 C4687.27056,492.046566 4689.3845,497.151878 4690.54,502.51 C4691.87317,508.480859 4692.53395,514.582162 4692.51,520.7 Z M4675.73,522.57 C4675.75186,518.180144 4675.41743,513.795753 4674.73,509.46 C4674.14131,505.549549 4672.9399,501.756333 4671.17,498.22 C4669.60757,495.079872 4667.28352,492.38109 4664.41,490.37 C4661.27767,488.314711 4657.58395,487.283826 4653.84,487.42 C4651.73159,487.424051 4649.63545,487.740831 4647.62,488.36 C4645.42009,489.054149 4643.32436,490.043144 4641.39,491.3 C4639.0251,492.855144 4636.81199,494.629653 4634.78,496.6 C4632.169,499.134423 4629.73024,501.840449 4627.48,504.7 L4627.48,539.84 C4631.17443,544.519374 4635.45251,548.706719 4640.21,552.3 C4643.85353,555.06074 4648.2889,556.575428 4652.86,556.62 C4656.57942,556.720391 4660.24252,555.695698 4663.37,553.68 C4666.33679,551.673175 4668.77576,548.98036 4670.48,545.83 C4672.35618,542.384115 4673.70453,538.676145 4674.48,534.83 C4675.31777,530.797286 4675.73666,526.688809 4675.73,522.57 L4675.73,522.57 Z" id="Shape" fill="#2D2D2D" fill-rule="nonzero"></path>
            <path d="M4792.84,518.25 C4792.84,520.8 4792.2,522.61 4790.92,523.7 C4789.69888,524.748814 4788.13967,525.320645 4786.53,525.31 L4728.35,525.31 C4728.29533,529.771364 4728.79584,534.222204 4729.84,538.56 C4730.7048,542.254997 4732.38592,545.70949 4734.76,548.67 C4737.16438,551.55565 4740.26073,553.785024 4743.76,555.15 C4748.07877,556.768118 4752.66976,557.535548 4757.28,557.41 C4761.05104,557.462918 4764.81753,557.127822 4768.52,556.41 C4771.41432,555.82845 4774.26717,555.056778 4777.06,554.1 C4779.46,553.253333 4781.43,552.486667 4782.97,551.8 C4784.06483,551.244121 4785.25659,550.904589 4786.48,550.8 C4786.91372,550.796127 4787.33984,550.913917 4787.71,551.14 C4788.08271,551.382954 4788.37503,551.730949 4788.55,552.14 C4788.77587,552.73915 4788.92701,553.363862 4789,554 C4789.1003,554.996775 4789.14704,555.998216 4789.14,557 C4789.1468,557.737936 4789.11342,558.475694 4789.04,559.21 C4788.99085,559.767944 4788.90736,560.322329 4788.79,560.87 C4788.70592,561.338635 4788.54005,561.788827 4788.3,562.2 C4788.06469,562.612774 4787.77174,562.9899 4787.43,563.32 C4786.44554,564.042127 4785.3737,564.636845 4784.24,565.09 C4782.01749,566.074124 4779.72025,566.879996 4777.37,567.5 C4774.14811,568.369613 4770.88384,569.073867 4767.59,569.61 C4763.68287,570.250467 4759.72925,570.564884 4755.77,570.55 C4749.27284,570.674052 4742.80542,569.641296 4736.67,567.5 C4731.43287,565.625311 4726.71172,562.541837 4722.89,558.5 C4718.98139,554.198903 4716.09307,549.071717 4714.44,543.5 C4712.43677,536.683906 4711.4792,529.603344 4711.6,522.5 C4711.5177,515.561386 4712.53013,508.6532 4714.6,502.03 C4716.34156,496.36682 4719.22788,491.121754 4723.08,486.62 C4726.76061,482.415435 4731.34048,479.09332 4736.48,476.9 C4742.04336,474.581879 4748.02365,473.431431 4754.05,473.52 C4760.97667,473.52 4766.88333,474.633333 4771.77,476.86 C4776.39956,478.913194 4780.50266,481.990512 4783.77,485.86 C4786.96588,489.7506 4789.3189,494.262543 4790.68,499.11 C4792.18035,504.395125 4792.92441,509.866148 4792.89,515.36 L4792.84,518.25 Z M4776.55,513.43 C4776.73667,504.93 4774.84333,498.263333 4770.87,493.43 C4766.89667,488.596667 4760.98667,486.176667 4753.14,486.17 C4749.49294,486.088774 4745.87719,486.859176 4742.58,488.42 C4739.646,489.856838 4737.05176,491.902233 4734.97,494.42 C4732.87794,497.00649 4731.27198,499.95074 4730.23,503.11 C4729.10768,506.451335 4728.47446,509.937412 4728.35,513.46 L4776.55,513.43 Z" id="Shape" fill="#2D2D2D" fill-rule="nonzero"></path>
            <path d="M4884.83,566.34 C4884.87859,567.022665 4884.58662,567.685222 4884.05,568.11 C4883.40255,568.556895 4882.66542,568.857207 4881.89,568.99 C4880.57,569.223059 4879.23,569.323559 4877.89,569.29 C4876.52365,569.316421 4875.15779,569.21599 4873.81,568.99 C4873.01149,568.885493 4872.25178,568.582986 4871.6,568.11 C4871.1201,567.651342 4870.87063,567.001993 4870.92,566.34 L4870.92,557.51 C4867.24681,561.48545 4862.86982,564.747006 4858.01,567.13 C4853.31818,569.410582 4848.1667,570.587281 4842.95,570.57 C4838.67372,570.620612 4834.41577,570.003175 4830.33,568.74 C4826.7998,567.662122 4823.52645,565.875734 4820.71,563.49 C4818.03969,561.176604 4815.92412,558.292037 4814.52,555.05 C4813.00097,551.451631 4812.25158,547.575257 4812.32,543.67 C4812.19818,539.146113 4813.2489,534.667663 4815.37,530.67 C4817.45416,526.935528 4820.45516,523.793429 4824.09,521.54 C4828.403,518.920527 4833.14113,517.076039 4838.09,516.09 C4844.19016,514.82071 4850.40954,514.213859 4856.64,514.28 L4868.81,514.28 L4868.81,507.41 C4868.85176,504.375325 4868.48855,501.348638 4867.73,498.41 C4867.10864,495.986456 4865.91529,493.747205 4864.25,491.88 C4862.52832,490.074787 4860.3836,488.727464 4858.01,487.96 C4854.96528,486.998258 4851.78197,486.548811 4848.59,486.63 C4844.95706,486.58452 4841.33652,487.062768 4837.84,488.05 C4834.9835,488.88097 4832.19525,489.930742 4829.5,491.19 C4827.10667,492.343333 4825.10667,493.393333 4823.5,494.34 C4822.43327,495.085179 4821.20749,495.571382 4819.92,495.76 C4819.43044,495.766966 4818.94995,495.627691 4818.54,495.36 C4818.11962,495.053716 4817.77708,494.652948 4817.54,494.19 C4817.21423,493.565481 4817.00098,492.888478 4816.91,492.19 C4816.60184,490.006793 4816.64912,487.788098 4817.05,485.62 C4817.33666,484.578661 4817.91629,483.64153 4818.72,482.92 C4820.10954,481.729707 4821.64528,480.721567 4823.29,479.92 C4825.688,478.674049 4828.18279,477.623963 4830.75,476.78 C4833.76544,475.784897 4836.84613,474.999688 4839.97,474.43 C4843.30358,473.805112 4846.68836,473.493753 4850.08,473.5 C4855.55827,473.382357 4861.02206,474.107491 4866.28,475.65 C4870.31518,476.866531 4873.99415,479.045767 4877,482 C4879.82253,484.902707 4881.88368,488.458184 4883,492.35 C4884.31605,497.044439 4884.9426,501.905277 4884.86,506.78 L4884.83,566.34 Z M4868.74,526 L4854.9,526 C4851.00997,525.944297 4847.12588,526.323314 4843.32,527.13 C4840.41995,527.723721 4837.65604,528.853023 4835.17,530.46 C4833.14529,531.777836 4831.50352,533.605855 4830.41,535.76 C4829.35809,537.98336 4828.83771,540.420911 4828.89,542.88 C4828.89,547.46 4830.34667,551.126667 4833.26,553.88 C4836.17333,556.633333 4840.24667,557.99 4845.48,557.95 C4849.64553,557.972928 4853.73746,556.852228 4857.31,554.71 C4861.592,551.993969 4865.44447,548.653811 4868.74,544.8 L4868.74,526 Z" id="Shape" fill="#2D2D2D" fill-rule="nonzero"></path>
            <path d="M4991.26,566.25 C4991.27161,566.721502 4991.13138,567.184252 4990.86,567.57 C4990.52224,567.986852 4990.08082,568.307572 4989.58,568.5 C4988.79504,568.810594 4987.9703,569.009208 4987.13,569.09 C4985.82522,569.235669 4984.51283,569.302457 4983.2,569.29 C4981.86387,569.303309 4980.52814,569.236523 4979.2,569.09 C4978.35939,569.011073 4977.53438,568.812397 4976.75,568.5 C4976.24918,568.307572 4975.80776,567.986852 4975.47,567.57 C4975.1975,567.185285 4975.06034,566.721036 4975.08,566.25 L4975.08,514.51 C4975.18071,510.423832 4974.78448,506.340566 4973.9,502.35 C4973.23018,499.502621 4972.06585,496.794885 4970.46,494.35 C4968.99786,492.164108 4966.98288,490.40445 4964.62,489.25 C4962.03102,488.025981 4959.19312,487.420059 4956.33,487.48 C4951.91914,487.599855 4947.65924,489.111995 4944.16,491.8 C4939.34634,495.415011 4935.05277,499.67493 4931.4,504.46 L4931.4,566.21 C4931.41524,566.680479 4931.27848,567.143349 4931.01,567.53 C4930.6679,567.942255 4930.22779,568.262029 4929.73,568.46 C4928.94187,568.771505 4928.11369,568.970134 4927.27,569.05 C4925.94186,569.196523 4924.60613,569.263309 4923.27,569.25 C4921.95718,569.262166 4920.64481,569.195379 4919.34,569.05 C4918.48416,568.965264 4917.64342,568.766851 4916.84,568.46 C4916.33013,568.289863 4915.88612,567.964726 4915.57,567.53 C4915.32797,567.133176 4915.20638,566.674609 4915.22,566.21 L4915.22,477.9 C4915.20744,477.442921 4915.307,476.989721 4915.51,476.58 C4915.79732,476.134799 4916.21197,475.786359 4916.7,475.58 C4917.40944,475.250781 4918.17083,475.047742 4918.95,474.98 C4919.87,474.89 4921.08,474.84 4922.59,474.84 C4924.1,474.84 4925.22,474.89 4926.16,474.98 C4926.92913,475.031668 4927.68034,475.235615 4928.37,475.58 C4928.82571,475.811614 4929.21468,476.155836 4929.5,476.58 C4929.73853,476.977892 4929.85662,477.436387 4929.84,477.9 L4929.84,489.59 C4934.82,484.023333 4939.78,479.946667 4944.72,477.36 C4949.32758,474.860955 4954.47851,473.532016 4959.72,473.49 C4964.84448,473.335074 4969.93587,474.361565 4974.6,476.49 C4978.44711,478.336483 4981.79436,481.080126 4984.36,484.49 C4986.928,487.99225 4988.74899,491.984808 4989.71,496.22 C4990.88029,501.521507 4991.42733,506.941564 4991.34,512.37 L4991.26,566.25 Z" id="Path" fill="#2D2D2D" fill-rule="nonzero"></path>
            <path d="M5164.82,521.78 C5164.93543,528.814042 5163.78722,535.811685 5161.43,542.44 C5159.35561,548.202111 5156.05648,553.445915 5151.76,557.81 C5147.43066,562.083249 5142.19932,565.332758 5136.45,567.32 C5129.84847,569.578056 5122.9062,570.677587 5115.93,570.57 C5109.42304,570.648322 5102.95034,569.616883 5096.79,567.52 C5091.2609,565.619292 5086.20622,562.549645 5081.97,558.52 C5077.71451,554.345807 5074.45975,549.261953 5072.45,543.65 C5070.12055,537.033366 5068.99281,530.053558 5069.12,523.04 L5069.12,444.23 C5069.11032,443.744549 5069.2455,443.267199 5069.51,442.86 C5069.85721,442.408804 5070.34146,442.082461 5070.89,441.93 C5071.7195,441.653393 5072.5733,441.455847 5073.44,441.34 C5074.80182,441.154733 5076.17587,441.074497 5077.55,441.1 C5078.88739,441.082656 5080.22427,441.162868 5081.55,441.34 C5082.43433,441.44855 5083.30543,441.646221 5084.15,441.93 C5084.67724,442.092679 5085.13937,442.418265 5085.47,442.86 C5085.74213,443.264157 5085.88192,443.742909 5085.87,444.23 L5085.87,521 C5085.77245,526.215177 5086.50148,531.412895 5088.03,536.4 C5089.27611,540.478633 5091.40289,544.233776 5094.26,547.4 C5096.98577,550.314583 5100.34585,552.562622 5104.08,553.97 C5108.20919,555.500346 5112.5869,556.249744 5116.99,556.18 C5121.45018,556.253494 5125.88729,555.525265 5130.09,554.03 C5133.7949,552.665209 5137.12523,550.444986 5139.81,547.55 C5142.57732,544.458298 5144.65047,540.809828 5145.89,536.85 C5147.37796,532.016122 5148.09013,526.976904 5148,521.92 L5148,444.23 C5147.9932,443.74359 5148.13254,443.266335 5148.4,442.86 C5148.74311,442.408982 5149.22419,442.082414 5149.77,441.93 C5150.61646,441.65302 5151.48689,441.4555 5152.37,441.34 C5153.71875,441.158255 5155.07924,441.07803 5156.44,441.1 C5157.77749,441.078662 5159.11466,441.158893 5160.44,441.34 C5161.30755,441.451112 5162.16181,441.648764 5162.99,441.93 C5163.5285,442.103662 5164.0069,442.426067 5164.37,442.86 C5164.66334,443.25585 5164.81799,443.737371 5164.81,444.23 L5164.82,521.78 Z" id="Path" fill="#2D2D2D" fill-rule="nonzero"></path>
            <path d="M5273.31,566.25 C5273.32676,566.722186 5273.18605,567.186543 5272.91,567.57 C5272.57224,567.986852 5272.13082,568.307572 5271.63,568.5 C5270.84562,568.812397 5270.02061,569.011073 5269.18,569.09 C5267.87522,569.235669 5266.56283,569.302457 5265.25,569.29 C5263.91387,569.303309 5262.57814,569.236523 5261.25,569.09 C5260.40939,569.011073 5259.58438,568.812397 5258.8,568.5 C5258.29918,568.307572 5257.85776,567.986852 5257.52,567.57 C5257.2475,567.185285 5257.11034,566.721036 5257.13,566.25 L5257.13,514.51 C5257.23071,510.423832 5256.83448,506.340566 5255.95,502.35 C5255.28018,499.502621 5254.11585,496.794885 5252.51,494.35 C5251.0517,492.164498 5249.04002,490.404711 5246.68,489.25 C5244.08716,488.026895 5241.24624,487.421058 5238.38,487.48 C5233.96914,487.599855 5229.70924,489.111995 5226.21,491.8 C5221.39634,495.415011 5217.10277,499.67493 5213.45,504.46 L5213.45,566.21 C5213.46524,566.680479 5213.32848,567.143349 5213.06,567.53 C5212.7179,567.942255 5212.27779,568.262029 5211.78,568.46 C5210.99211,568.772277 5210.16382,568.970932 5209.32,569.05 C5207.99186,569.196523 5206.65613,569.263309 5205.32,569.25 C5204.00718,569.262166 5202.69481,569.195379 5201.39,569.05 C5200.53416,568.965264 5199.69342,568.766851 5198.89,568.46 C5198.38312,568.284114 5197.9407,567.960137 5197.62,567.53 C5197.38147,567.132108 5197.26338,566.673613 5197.28,566.21 L5197.28,477.9 C5197.26433,477.443753 5197.36045,476.990595 5197.56,476.58 C5197.84732,476.134799 5198.26197,475.786359 5198.75,475.58 C5199.45992,475.252116 5200.22108,475.04914 5201,474.98 C5201.92,474.89 5203.13,474.84 5204.64,474.84 C5206.15,474.84 5207.27,474.89 5208.21,474.98 C5208.97913,475.031668 5209.73034,475.235615 5210.42,475.58 C5210.87571,475.811614 5211.26468,476.155836 5211.55,476.58 C5211.78853,476.977892 5211.90662,477.436387 5211.89,477.9 L5211.89,489.59 C5216.87,484.023333 5221.83,479.946667 5226.77,477.36 C5231.37758,474.860955 5236.52851,473.532016 5241.77,473.49 C5247.65,473.49 5252.62,474.49 5256.64,476.49 C5260.48711,478.336483 5263.83436,481.080126 5266.4,484.49 C5268.96714,487.994009 5270.79112,491.985672 5271.76,496.22 C5272.92155,501.522758 5273.46518,506.942183 5273.38,512.37 L5273.31,566.25 Z" id="Path" fill="#2D2D2D" fill-rule="nonzero"></path>
            <path d="M5321.51,448.06 C5321.51,451.86 5320.79,454.44 5319.35,455.82 C5317.91,457.2 5315.26,457.88 5311.35,457.88 C5307.44,457.88 5304.96,457.2 5303.55,455.88 C5302.14,454.56 5301.44,452.01 5301.44,448.28 C5301.44,444.55 5302.16,441.9 5303.6,440.53 C5305.04,439.16 5307.69,438.46 5311.6,438.46 C5315.51,438.46 5317.99,439.14 5319.41,440.46 C5320.83,441.78 5321.51,444.33 5321.51,448.06 Z M5319.65,566.25 C5319.66524,566.720479 5319.52848,567.183349 5319.26,567.57 C5318.9179,567.982255 5318.47779,568.302029 5317.98,568.5 C5317.19187,568.811505 5316.36369,569.010134 5315.52,569.09 C5314.19186,569.236523 5312.85613,569.303309 5311.52,569.29 C5310.20718,569.302166 5308.89481,569.235379 5307.59,569.09 C5306.73416,569.005264 5305.89342,568.806851 5305.09,568.5 C5304.58165,568.326927 5304.13846,568.002387 5303.82,567.57 C5303.58147,567.172108 5303.46338,566.713613 5303.48,566.25 L5303.48,477.9 C5303.47767,477.450713 5303.59502,477.008908 5303.82,476.62 C5304.12422,476.158256 5304.56978,475.807426 5305.09,475.62 C5305.89407,475.317132 5306.73471,475.122103 5307.59,475.04 C5308.89439,474.889577 5310.20708,474.822774 5311.52,474.84 C5312.85623,474.821697 5314.19226,474.888499 5315.52,475.04 C5316.36303,475.117705 5317.19105,475.312929 5317.98,475.62 C5318.48821,475.833219 5318.93015,476.178482 5319.26,476.62 C5319.51289,476.999103 5319.64854,477.44429 5319.65,477.9 L5319.65,566.25 Z" id="Shape" fill="#2D2D2D" fill-rule="nonzero"></path>
            <path d="M5432.34,521.09 C5432.40749,527.823107 5431.44641,534.52704 5429.49,540.97 C5427.76714,546.715337 5424.87683,552.043176 5421,556.62 C5417.1352,561.076509 5412.30184,564.589507 5406.87,566.89 C5400.63148,569.452275 5393.93286,570.704862 5387.19,570.57 C5380.70766,570.70427 5374.25916,569.601239 5368.19,567.32 C5363.0013,565.310391 5358.3738,562.079033 5354.7,557.9 C5350.96787,553.53645 5348.21892,548.420542 5346.64,542.9 C5344.79783,536.396002 5343.90858,529.659233 5344,522.9 C5343.93324,516.174551 5344.87366,509.476997 5346.79,503.03 C5348.4915,497.286092 5351.3653,491.957298 5355.23,487.38 C5359.07438,482.929002 5363.90164,479.433516 5369.33,477.17 C5375.58718,474.628464 5382.29795,473.393165 5389.05,473.54 C5395.53089,473.401543 5401.97893,474.497709 5408.05,476.77 C5413.24036,478.786645 5417.87028,482.020727 5421.55,486.2 C5425.28593,490.567126 5428.04736,495.680899 5429.65,501.2 C5431.52341,507.660899 5432.42991,514.363573 5432.34,521.09 Z M5415.56,522.17 C5415.58272,517.618663 5415.13027,513.077386 5414.21,508.62 C5413.43763,504.656122 5411.9464,500.867048 5409.81,497.44 C5407.75093,494.218518 5404.88189,491.594315 5401.49,489.83 C5393.39892,486.181403 5384.14832,486.094339 5375.99,489.59 C5372.57491,491.242405 5369.6259,493.720534 5367.41,496.8 C5365.06645,500.119627 5363.37012,503.85154 5362.41,507.8 C5361.27644,512.358691 5360.72538,517.042699 5360.77,521.74 C5360.74569,526.320683 5361.19474,530.89162 5362.11,535.38 C5362.88472,539.338622 5364.39408,543.117107 5366.56,546.52 C5368.66457,549.708313 5371.54466,552.309681 5374.93,554.08 C5378.99499,556.070176 5383.48651,557.031664 5388.01,556.88 C5392.27709,556.984726 5396.51164,556.112504 5400.39,554.33 C5403.81081,552.687672 5406.77213,550.224486 5409.01,547.16 C5411.35805,543.849217 5413.03931,540.113095 5413.96,536.16 C5415.05352,531.577896 5415.59073,526.880682 5415.56,522.17 L5415.56,522.17 Z" id="Shape" fill="#2D2D2D" fill-rule="nonzero"></path>
            <path d="M5532.87,566.25 C5532.88524,566.720479 5532.74848,567.183349 5532.48,567.57 C5532.1379,567.982255 5531.69779,568.302029 5531.2,568.5 C5530.41187,568.811505 5529.58369,569.010134 5528.74,569.09 C5527.43854,569.235413 5526.1295,569.302201 5524.82,569.29 C5523.48388,569.302596 5522.1482,569.235812 5520.82,569.09 C5519.9797,569.009208 5519.15496,568.810594 5518.37,568.5 C5517.86918,568.307572 5517.42776,567.986852 5517.09,567.57 C5516.82152,567.183349 5516.68476,566.720479 5516.7,566.25 L5516.7,514.51 C5516.80071,510.423832 5516.40448,506.340566 5515.52,502.35 C5514.84858,499.504822 5513.68799,496.797911 5512.09,494.35 C5510.62393,492.167572 5508.60998,490.408817 5506.25,489.25 C5503.65787,488.024812 5500.81644,487.41887 5497.95,487.48 C5493.53914,487.599855 5489.27924,489.111995 5485.78,491.8 C5480.96122,495.431231 5476.66142,499.704116 5473,504.5 L5473,566.25 C5473.01524,566.720479 5472.87848,567.183349 5472.61,567.57 C5472.27224,567.986852 5471.83082,568.307572 5471.33,568.5 C5470.54504,568.810594 5469.7203,569.009208 5468.88,569.09 C5467.5518,569.235812 5466.21612,569.302596 5464.88,569.29 C5463.5705,569.302201 5462.26146,569.235413 5460.96,569.09 C5460.10094,569.005085 5459.25693,568.806691 5458.45,568.5 C5457.94312,568.324114 5457.5007,568.000137 5457.18,567.57 C5456.94147,567.172108 5456.82338,566.713613 5456.84,566.25 L5456.84,477.9 C5456.82232,477.442451 5456.92216,476.988001 5457.13,476.58 C5457.41031,476.132538 5457.82262,475.783126 5458.31,475.58 C5459.01992,475.252116 5459.78108,475.04914 5460.56,474.98 C5461.48,474.89 5462.69,474.84 5464.2,474.84 C5465.71,474.84 5466.83,474.89 5467.78,474.98 C5468.54595,475.031656 5469.29388,475.235639 5469.98,475.58 C5470.43725,475.80935 5470.82675,476.154036 5471.11,476.58 C5471.35203,476.976824 5471.47362,477.435391 5471.46,477.9 L5471.46,489.59 C5476.42667,484.023333 5481.38333,479.946667 5486.33,477.36 C5490.93758,474.860955 5496.08851,473.532016 5501.33,473.49 C5507.21667,473.49 5512.17333,474.49 5516.2,476.49 C5520.04711,478.336483 5523.39436,481.080126 5525.96,484.49 C5528.52714,487.994009 5530.35112,491.985672 5531.32,496.22 C5532.48647,501.521974 5533.03015,506.941974 5532.94,512.37 L5532.87,566.25 Z" id="Path" fill="#2D2D2D" fill-rule="nonzero"></path>
            <path d="M4318.65,332 C4318.65,333.05 4318.65,334 4318.55,334.75 C4318.49618,335.445174 4318.38243,336.134402 4318.21,336.81 C4318.0588,337.356562 4317.844,337.883498 4317.57,338.38 C4317.18046,338.99132 4316.71695,339.552226 4316.19,340.05 C4314.91096,341.173471 4313.53189,342.177651 4312.07,343.05 C4309.59083,344.593413 4306.97679,345.9088 4304.26,346.98 C4300.79685,348.366484 4297.22016,349.450532 4293.57,350.22 C4289.23,351.131651 4284.80458,351.574193 4280.37,351.54 C4272.7244,351.654507 4265.13178,350.254255 4258.03,347.42 C4251.48794,344.751582 4245.66467,340.582811 4241.03,335.25 C4236.10154,329.436304 4232.42497,322.668692 4230.23,315.37 C4225.09341,297.243042 4225.19395,278.0322 4230.52,259.96 C4232.93766,252.289184 4236.83812,245.167784 4242,239 C4246.80394,233.357945 4252.82497,228.87893 4259.61,225.9 C4270.17333,221.496704 4281.79497,220.283437 4293.04,222.41 C4296.30499,223.048664 4299.51992,223.920906 4302.66,225.02 C4305.38953,225.969273 4308.01889,227.185145 4310.51,228.65 C4312.2197,229.596446 4313.81657,230.733711 4315.27,232.04 C4315.92219,232.634577 4316.49975,233.30616 4316.99,234.04 C4317.27062,234.550934 4317.48565,235.095232 4317.63,235.66 C4317.80897,236.383805 4317.93926,237.118783 4318.02,237.86 C4318.1283,238.872961 4318.17838,239.891301 4318.17,240.91 C4318.18065,242.023295 4318.11382,243.135983 4317.97,244.24 C4317.87163,245.035058 4317.6734,245.814539 4317.38,246.56 C4317.17979,247.084772 4316.85758,247.554372 4316.44,247.93 C4316.06128,248.226783 4315.591,248.382365 4315.11,248.37 C4314.19,248.37 4312.91,247.73 4311.26,246.45 C4309.22597,244.920932 4307.10216,243.515081 4304.9,242.24 C4301.89113,240.513142 4298.71487,239.095891 4295.42,238.01 C4291.0976,236.647199 4286.58108,236.001982 4282.05,236.1 C4276.71121,236.028481 4271.42777,237.18851 4266.61,239.49 C4261.89658,241.817412 4257.81438,245.247833 4254.71,249.49 C4251.21475,254.317623 4248.6229,259.738472 4247.06,265.49 C4243.4892,279.597192 4243.45829,294.367984 4246.97,308.49 C4248.43166,314.10072 4250.97977,319.370215 4254.47,324 C4257.63035,328.085616 4261.75297,331.325314 4266.47,333.43 C4271.54273,335.62291 4277.02431,336.710363 4282.55,336.62 C4287.0475,336.699548 4291.52935,336.068443 4295.83,334.75 C4299.1823,333.689085 4302.41875,332.291982 4305.49,330.58 C4308.16,329.04 4310.34,327.65 4312.06,326.41 C4313.78,325.17 4315.12,324.54 4316.06,324.54 C4316.47674,324.528325 4316.8886,324.632153 4317.25,324.84 C4317.6323,325.113361 4317.91076,325.508137 4318.04,325.96 C4318.26962,326.711861 4318.41714,327.486375 4318.48,328.27 C4318.59,329.28 4318.65,330.52 4318.65,332 Z" id="Path" fill="#2D2D2D" fill-rule="nonzero"></path>
            <path d="M4421.72,302.39 C4421.78757,309.119832 4420.82648,315.820482 4418.87,322.26 C4417.14707,328.00832 4414.25684,333.339415 4410.38,337.92 C4406.51727,342.3763 4401.68313,345.886437 4396.25,348.18 C4390.01172,350.743099 4383.31293,351.995718 4376.57,351.86 C4370.08844,351.995507 4363.64034,350.895935 4357.57,348.62 C4352.37881,346.6097 4347.74822,343.378574 4344.07,339.2 C4340.34404,334.833766 4337.59885,329.718514 4336.02,324.2 C4334.16944,317.697536 4333.27672,310.960022 4333.37,304.2 C4333.30329,297.471272 4334.2437,290.770429 4336.16,284.32 C4337.86365,278.576979 4340.73722,273.248607 4344.6,268.67 C4348.44982,264.22494 4353.27558,260.730543 4358.7,258.46 C4364.95742,255.919279 4371.66802,254.684012 4378.42,254.83 C4384.9017,254.692536 4391.35017,255.79217 4397.42,258.07 C4402.60805,260.085615 4407.23494,263.31998 4410.91,267.5 C4414.64593,271.867126 4417.40736,276.980899 4419.01,282.5 C4420.8909,288.959731 4421.80415,295.662533 4421.72,302.39 Z M4404.94,303.47 C4404.96096,298.919248 4404.51192,294.378497 4403.6,289.92 C4402.81968,285.953746 4401.32542,282.162208 4399.19,278.73 C4397.1303,275.511582 4394.2612,272.89077 4390.87,271.13 C4382.78168,267.472045 4373.52848,267.381327 4365.37,270.88 C4361.956,272.529856 4359.00966,275.008629 4356.8,278.09 C4354.45012,281.424326 4352.75351,285.173831 4351.8,289.14 C4350.67169,293.696251 4350.12071,298.376285 4350.16,303.07 C4350.13521,307.654014 4350.58427,312.228315 4351.5,316.72 C4352.27654,320.678087 4353.78577,324.456245 4355.95,327.86 C4358.05757,331.045736 4360.93692,333.646437 4364.32,335.42 C4368.38539,337.409011 4372.87662,338.370436 4377.4,338.22 C4381.66709,338.324726 4385.90164,337.452504 4389.78,335.67 C4393.20081,334.027672 4396.16213,331.564486 4398.4,328.5 C4400.76375,325.191993 4402.46191,321.456036 4403.4,317.5 C4404.47653,312.902427 4404.99361,308.191622 4404.94,303.47 L4404.94,303.47 Z" id="Shape" fill="#2D2D2D" fill-rule="nonzero"></path>
            <path d="M4485.73,300.43 C4485.73,302.98 4485.43,304.75 4484.85,305.73 C4484.34342,306.659911 4483.35858,307.227642 4482.3,307.2 L4441.3,307.2 C4440.19811,307.243702 4439.16989,306.647802 4438.66,305.67 C4438.06,304.67 4437.77,302.91 4437.77,300.43 C4437.77,297.95 4438.06,296.2 4438.66,295.22 C4439.19165,294.270632 4440.21297,293.701946 4441.3,293.75 L4482.3,293.75 C4482.78885,293.741568 4483.2736,293.840565 4483.72,294.04 C4484.19439,294.289292 4484.57123,294.690785 4484.79,295.18 C4485.12619,295.841409 4485.36211,296.549157 4485.49,297.28 C4485.66035,298.321154 4485.74065,299.375055 4485.73,300.43 Z" id="Path" fill="#2D2D2D" fill-rule="nonzero"></path>
            <path d="M4554.91,222.88 C4554.9266,223.883815 4554.85971,224.887272 4554.71,225.88 C4554.61145,226.497298 4554.46432,227.105854 4554.27,227.7 C4554.1679,228.070807 4553.94649,228.397652 4553.64,228.63 C4553.33772,228.807958 4552.99046,228.894774 4552.64,228.88 C4552.04682,228.84589 4551.46598,228.696434 4550.93,228.44 C4550.23,228.14 4549.4,227.82 4548.42,227.44 C4547.28089,227.027278 4546.11483,226.693161 4544.93,226.44 C4543.39771,226.120585 4541.83509,225.969688 4540.27,225.99 C4538.1487,225.9292 4536.03967,226.331895 4534.09,227.17 C4532.37877,227.959833 4530.94115,229.240814 4529.96,230.85 C4528.80156,232.845803 4528.03769,235.045742 4527.71,237.33 C4527.20202,240.527655 4526.96451,243.762442 4527,247 L4527,256.62 L4546.73,256.62 C4547.19674,256.603716 4547.65834,256.72172 4548.06,256.96 C4548.48858,257.26154 4548.83284,257.667766 4549.06,258.14 C4549.38739,258.806799 4549.61643,259.517515 4549.74,260.25 C4549.92343,261.282912 4550.00715,262.331066 4549.99,263.38 C4550.11163,265.130279 4549.80621,266.883904 4549.1,268.49 C4548.69028,269.42718 4547.77264,270.040242 4546.75,270.06 L4527,270.06 L4527,347.51 C4527.01669,347.980663 4526.8798,348.443979 4526.61,348.83 C4526.26053,349.256304 4525.80036,349.578079 4525.28,349.76 C4524.4787,350.075525 4523.63722,350.27748 4522.78,350.36 C4520.16946,350.613309 4517.54054,350.613309 4514.93,350.36 C4514.06979,350.275972 4513.22522,350.074082 4512.42,349.76 C4511.90327,349.576464 4511.44674,349.254812 4511.1,348.83 C4510.8302,348.443979 4510.69331,347.980663 4510.71,347.51 L4510.71,270.09 L4498.24,270.09 C4497.20763,270.102121 4496.274,269.478376 4495.89,268.52 C4495.26063,266.893733 4494.99111,265.150402 4495.1,263.41 C4495.08915,262.363156 4495.156,261.316949 4495.3,260.28 C4495.39232,259.551578 4495.59111,258.840661 4495.89,258.17 C4496.09081,257.681208 4496.44076,257.268261 4496.89,256.99 C4497.30753,256.754889 4497.78099,256.637387 4498.26,256.65 L4510.73,256.65 L4510.73,247.52 C4510.63781,242.182774 4511.21225,236.854913 4512.44,231.66 C4513.36813,227.703341 4515.16106,224.001357 4517.69,220.82 C4520.05709,217.998832 4523.12227,215.847348 4526.58,214.58 C4530.62975,213.163976 4534.90084,212.486562 4539.19,212.58 C4541.43203,212.578888 4543.66897,212.793206 4545.87,213.22 C4547.57597,213.51872 4549.25003,213.977411 4550.87,214.59 C4551.72771,214.893407 4552.52624,215.343423 4553.23,215.92 C4553.6627,216.353823 4554.00289,216.870918 4554.23,217.44 C4554.51903,218.163039 4554.70095,218.924401 4554.77,219.7 C4554.87475,220.756645 4554.92149,221.818238 4554.91,222.88 Z" id="Path" fill="#2D2D2D" fill-rule="nonzero"></path>
            <path d="M4644,347.54 C4644.01326,348.003242 4643.89541,348.460809 4643.66,348.86 C4643.34996,349.283805 4642.92226,349.607194 4642.43,349.79 C4641.69222,350.098153 4640.91448,350.300163 4640.12,350.39 C4638.96503,350.525099 4637.80281,350.588554 4636.64,350.58 C4635.4106,350.592133 4634.18161,350.52868 4632.96,350.39 C4632.17731,350.30614 4631.41191,350.103831 4630.69,349.79 C4630.22604,349.604626 4629.83116,349.279637 4629.56,348.86 C4629.35583,348.450692 4629.2562,347.997195 4629.27,347.54 L4629.27,335.86 C4624.23667,341.42 4619.26333,345.476667 4614.35,348.03 C4609.76183,350.500209 4604.64068,351.814818 4599.43,351.86 C4593.53667,351.86 4588.58,350.88 4584.56,348.92 C4580.70301,347.089072 4577.35233,344.342617 4574.8,340.92 C4572.24358,337.394954 4570.4209,333.392533 4569.44,329.15 C4568.27193,323.780746 4567.73164,318.293961 4567.83,312.8 L4567.83,259.2 C4567.81222,258.736262 4567.9304,258.277441 4568.17,257.88 C4568.50737,257.425137 4568.96934,257.077794 4569.5,256.88 C4570.31329,256.54922 4571.17407,256.350059 4572.05,256.29 C4573.1,256.19 4574.4,256.15 4575.97,256.15 C4577.54,256.15 4578.86,256.15 4579.9,256.29 C4580.76046,256.345489 4581.60552,256.544923 4582.4,256.88 C4582.92103,257.095027 4583.37874,257.439169 4583.73,257.88 C4583.9998,258.266021 4584.13669,258.729337 4584.12,259.2 L4584.12,310.64 C4584.02373,314.802861 4584.40285,318.963111 4585.25,323.04 C4585.88027,325.900267 4587.04759,328.614954 4588.69,331.04 C4590.18444,333.197258 4592.19114,334.949688 4594.53,336.14 C4597.09082,337.399121 4599.91708,338.023368 4602.77,337.96 C4607.16633,337.844051 4611.41148,336.330928 4614.89,333.64 C4619.69642,329.996296 4624.00622,325.740282 4627.71,320.98 L4627.71,259.2 C4627.69222,258.736262 4627.8104,258.277441 4628.05,257.88 C4628.38345,257.425453 4628.84216,257.077949 4629.37,256.88 C4630.17067,256.553313 4631.01763,256.354227 4631.88,256.29 C4632.88,256.19 4634.21,256.15 4635.88,256.15 C4637.55,256.15 4638.76,256.15 4639.8,256.29 C4640.64839,256.33994 4641.48125,256.53969 4642.26,256.88 C4642.76494,257.117606 4643.21457,257.458238 4643.58,257.88 C4643.88352,258.251757 4644.04323,258.72026 4644.03076,259.2 L4644,347.54 Z" id="Path" fill="#2D2D2D" fill-rule="nonzero"></path>
            <path d="M4750.36,347.54 C4750.37669,348.010663 4750.2398,348.473979 4749.97,348.86 C4749.63096,349.275496 4749.18993,349.595932 4748.69,349.79 C4747.90392,350.109725 4747.07502,350.311896 4746.23,350.39 C4744.9279,350.526412 4743.61919,350.589845 4742.31,350.58 C4740.97419,350.590234 4739.63883,350.526805 4738.31,350.39 C4737.46819,350.312082 4736.64256,350.109888 4735.86,349.79 C4735.3578,349.600123 4734.91576,349.278953 4734.58,348.86 C4734.3102,348.473979 4734.17331,348.010663 4734.19,347.54 L4734.19,295.81 C4734.29004,291.720549 4733.89382,287.634056 4733.01,283.64 C4732.33665,280.795457 4731.1762,278.088868 4729.58,275.64 C4728.10971,273.461295 4726.09686,271.703501 4723.74,270.54 C4721.14623,269.319651 4718.30596,268.713954 4715.44,268.77 C4711.03271,268.89263 4706.77683,270.404587 4703.28,273.09 C4698.46503,276.710723 4694.16846,280.973644 4690.51,285.76 L4690.51,347.5 C4690.52669,347.970663 4690.3898,348.433979 4690.12,348.82 C4689.78424,349.238953 4689.3422,349.560123 4688.84,349.75 C4688.05744,350.069888 4687.23181,350.272082 4686.39,350.35 C4685.06117,350.486805 4683.72581,350.550234 4682.39,350.54 C4681.08081,350.549845 4679.7721,350.486412 4678.47,350.35 C4677.60958,350.267237 4676.76483,350.065306 4675.96,349.75 C4675.45105,349.578086 4675.00754,349.253312 4674.69,348.82 C4674.4504,348.422559 4674.33222,347.963738 4674.35,347.5 L4674.35,259.2 C4674.3362,258.742805 4674.43583,258.289308 4674.64,257.88 C4674.92374,257.435513 4675.33499,257.086988 4675.82,256.88 C4676.53061,256.555753 4677.29171,256.356176 4678.07,256.29 C4680.47305,256.10332 4682.88695,256.10332 4685.29,256.29 C4686.05521,256.338796 4686.80306,256.539356 4687.49,256.88 C4687.94764,257.112761 4688.3396,257.456583 4688.63,257.88 C4688.86541,258.279191 4688.98326,258.736758 4688.97,259.2 L4688.97,270.88 C4693.95,265.32 4698.90667,261.246667 4703.84,258.66 C4708.44562,256.154785 4713.59728,254.822223 4718.84,254.78 C4724.73333,254.78 4729.69,255.78 4733.71,257.78 C4737.55501,259.629787 4740.90153,262.372838 4743.47,265.78 C4746.0391,269.286556 4747.86321,273.281897 4748.83,277.52 C4749.99597,282.818671 4750.53965,288.235301 4750.45,293.66 L4750.36,347.54 Z" id="Path" fill="#2D2D2D" fill-rule="nonzero"></path>
            <path d="M4856,347.54 C4856.01243,348.022163 4855.895,348.4988 4855.66,348.92 C4855.3774,349.349276 4854.96343,349.675538 4854.48,349.85 C4853.7669,350.115535 4853.0252,350.296766 4852.27,350.39 C4851.16193,350.525273 4850.04627,350.588738 4848.93,350.58 C4847.78379,350.589539 4846.63814,350.526077 4845.5,350.39 C4844.72956,350.291115 4843.97192,350.110085 4843.24,349.85 C4842.73253,349.670008 4842.28799,349.347019 4841.96,348.92 C4841.69527,348.509194 4841.55945,348.028602 4841.57,347.54 L4841.57,335.86 C4837.38938,340.520062 4832.50326,344.495097 4827.09,347.64 C4822.07166,350.455983 4816.4042,351.910769 4810.65,351.861285 C4804.17,351.861285 4798.64333,350.596667 4794.07,348.07 C4789.57246,345.63673 4785.74311,342.133652 4782.92,337.87 C4779.93942,333.255317 4777.82801,328.134392 4776.69,322.76 C4775.34511,316.749932 4774.6743,310.608685 4774.69,304.45 C4774.60575,297.519106 4775.42942,290.607016 4777.14,283.89 C4778.54817,278.256149 4781.01537,272.941656 4784.41,268.23 C4787.50943,263.975455 4791.60141,260.54259 4796.33,258.23 C4801.47056,255.824457 4807.09563,254.633751 4812.77,254.75 C4817.70717,254.692654 4822.58189,255.857227 4826.96,258.14 C4831.70569,260.769919 4835.99722,264.146419 4839.67,268.14 L4839.67,216.79 C4839.6749,216.328976 4839.79157,215.876022 4840.01,215.47 C4840.30848,214.978257 4840.78471,214.620193 4841.34,214.47 C4842.1542,214.19961 4842.99082,214.002166 4843.84,213.88 C4845.12457,213.693038 4846.42206,213.609437 4847.72,213.63 C4849.05779,213.609732 4850.39514,213.693316 4851.72,213.88 C4852.5555,213.98804 4853.37691,214.18585 4854.17,214.47 C4854.70628,214.657401 4855.17105,215.006853 4855.5,215.47 C4855.77826,215.85462 4855.93184,216.315346 4855.94,216.79 L4856,347.54 Z M4839.71,285.4 C4836.07166,280.694767 4831.79362,276.52107 4827,273 C4823.27694,270.2811 4818.79978,268.788714 4814.19,268.73 C4810.4688,268.615046 4806.80145,269.640927 4803.68,271.67 C4800.7766,273.678978 4798.38015,276.335611 4796.68,279.43 C4794.81587,282.834465 4793.49335,286.508496 4792.76,290.32 C4791.93915,294.392094 4791.52711,298.535998 4791.52964,302.69 C4791.5171,307.062941 4791.85148,311.430001 4792.53,315.75 C4793.12398,319.695015 4794.33548,323.521886 4796.12,327.09 C4797.69763,330.250425 4800.02125,332.979056 4802.89,335.04 C4806.02097,337.127573 4809.7294,338.177128 4813.49,338.04 C4815.59746,338.047585 4817.69524,337.754637 4819.72,337.17 C4821.89493,336.487484 4823.95965,335.493856 4825.85,334.22 C4828.20354,332.639083 4830.4092,330.84845 4832.44,328.87 C4835.03401,326.331174 4837.45919,323.625398 4839.7,320.77 L4839.71,285.4 Z" id="Shape" fill="#2D2D2D" fill-rule="nonzero"></path>
            <path d="M4961.7,299.54 C4961.7,302.09 4961.06,303.9 4959.78,304.99 C4958.56218,306.044419 4957.00078,306.617051 4955.39,306.6 L4897.22,306.6 C4897.16668,311.060718 4897.66376,315.510984 4898.7,319.85 C4899.56915,323.546479 4901.24974,327.003311 4903.62,329.97 C4906.02824,332.851502 4909.12344,335.080045 4912.62,336.45 C4916.93654,338.063442 4921.52335,338.83074 4926.13,338.71 C4929.90438,338.763605 4933.67425,338.428505 4937.38,337.71 C4940.27156,337.134914 4943.12129,336.366522 4945.91,335.41 C4948.31,334.56 4950.29,333.79 4951.83,333.1 C4952.92267,332.547655 4954.11046,332.208285 4955.33,332.1 C4955.76437,332.091097 4956.19187,332.20927 4956.56,332.44 C4956.93191,332.683852 4957.224,333.031579 4957.4,333.44 C4957.63234,334.054413 4957.78362,334.696487 4957.85,335.35 C4957.95872,336.346199 4958.00881,337.347925 4958,338.35 C4958.00414,339.088132 4957.96742,339.825928 4957.89,340.56 C4957.83817,341.120353 4957.75807,341.67773 4957.65,342.23 C4957.55962,342.696901 4957.39414,343.14606 4957.16,343.56 C4956.91281,343.96739 4956.61734,344.343444 4956.28,344.68 C4955.29296,345.398098 4954.22165,345.992529 4953.09,346.45 C4950.86528,347.425863 4948.56843,348.228255 4946.22,348.85 C4943.00291,349.725499 4939.74167,350.429821 4936.45,350.96 C4932.54343,351.605027 4928.58942,351.919475 4924.63,351.9 C4918.13278,352.024904 4911.66521,350.992125 4905.53,348.85 C4900.28928,346.976708 4895.56457,343.893147 4891.74,339.85 C4887.83307,335.547691 4884.94498,330.420909 4883.29,324.85 C4881.28969,318.033483 4880.3355,310.952861 4880.46,303.85 C4880.36392,296.914933 4881.35597,290.007695 4883.4,283.38 C4885.14784,277.719482 4888.03349,272.475635 4891.88,267.97 C4895.56097,263.768298 4900.14095,260.449526 4905.28,258.26 C4910.84574,255.937107 4916.8296,254.783223 4922.86,254.87 C4929.79333,254.87 4935.7,255.983333 4940.58,258.21 C4945.2078,260.266206 4949.31026,263.343053 4952.58,267.21 C4955.78288,271.097456 4958.13973,275.610214 4959.5,280.46 C4960.99763,285.745472 4961.73833,291.216582 4961.7,296.71 L4961.7,299.54 Z M4945.41,294.73 C4945.60333,286.23 4943.71,279.563333 4939.73,274.73 C4935.75,269.896667 4929.84,267.47 4922,267.45 C4918.3527,267.366186 4914.73636,268.136713 4911.44,269.7 C4908.50845,271.136207 4905.91735,273.18181 4903.84,275.7 C4901.74278,278.288354 4900.1333,281.236231 4899.09,284.4 C4897.9653,287.740354 4897.3353,291.227271 4897.22,294.75 L4945.41,294.73 Z" id="Shape" fill="#2D2D2D" fill-rule="nonzero"></path>
            <path d="M5062.62,347.54 C5062.63243,348.022163 5062.515,348.4988 5062.28,348.92 C5061.99478,349.346866 5061.5817,349.672432 5061.1,349.85 C5060.38653,350.114326 5059.64497,350.295522 5058.89,350.39 C5057.7819,350.524968 5056.66626,350.588432 5055.55,350.58 C5054.40047,350.589612 5053.25148,350.526151 5052.11,350.39 C5051.34302,350.290044 5050.5888,350.109032 5049.86,349.85 C5049.34975,349.675323 5048.90379,349.351304 5048.58,348.92 C5048.31527,348.509194 5048.17945,348.028602 5048.19,347.54 L5048.19,335.86 C5044.00938,340.520062 5039.12326,344.495097 5033.71,347.64 C5028.69166,350.455983 5023.0242,351.910769 5017.27,351.861285 C5010.79,351.861285 5005.26333,350.596667 5000.69,348.07 C4996.19029,345.639772 4992.36027,342.136078 4989.54,337.87 C4986.5554,333.257422 4984.44368,328.135731 4983.31,322.76 C4981.96511,316.749932 4981.2943,310.608685 4981.31,304.45 C4981.2289,297.51866 4982.05593,290.606549 4983.77,283.89 C4985.18017,278.258657 4987.64353,272.945128 4991.03,268.23 C4994.13551,263.977248 4998.23021,260.544978 5002.96,258.23 C5008.10056,255.824457 5013.72563,254.633751 5019.4,254.75 C5024.33398,254.692647 5029.20546,255.857268 5033.58,258.14 C5038.33059,260.766983 5042.62586,264.14377 5046.3,268.14 L5046.3,216.79 C5046.2999,216.328329 5046.41688,215.874173 5046.64,215.47 C5046.93687,214.980978 5047.40887,214.623402 5047.96,214.47 C5048.77764,214.199745 5049.61758,214.00231 5050.47,213.88 C5051.75124,213.693358 5053.04539,213.609757 5054.34,213.63 C5055.67777,213.610649 5057.01505,213.694229 5058.34,213.88 C5059.17527,213.989248 5059.99656,214.187027 5060.79,214.47 C5061.32356,214.657438 5061.78512,215.007102 5062.11,215.47 C5062.3954,215.85156 5062.5529,216.313564 5062.56,216.79 L5062.62,347.54 Z M5046.33,285.4 C5042.6884,280.694251 5038.40699,276.520547 5033.61,273 C5029.89157,270.279486 5025.41703,268.786808 5020.81,268.73 C5017.08864,268.61376 5013.42091,269.639747 5010.3,271.67 C5007.3966,273.678978 5005.00015,276.335611 5003.3,279.43 C5001.43254,282.833939 5000.10665,286.507972 4999.37,290.32 C4998.55734,294.393151 4998.14869,298.53657 4998.14964,302.69 C4998.1371,307.062941 4998.47148,311.430001 4999.15,315.75 C4999.73955,319.696039 5000.95127,323.523593 5002.74,327.09 C5004.31763,330.250425 5006.64125,332.979056 5009.51,335.04 C5012.6404,337.12882 5016.34923,338.178491 5020.11,338.04 C5022.21746,338.047585 5024.31524,337.754637 5026.34,337.17 C5028.5141,336.485405 5030.57854,335.491916 5032.47,334.22 C5034.82218,332.641443 5037.02473,330.850619 5039.05,328.87 C5041.65005,326.333985 5044.07873,323.628025 5046.32,320.77 L5046.33,285.4 Z" id="Shape" fill="#2D2D2D" fill-rule="nonzero"></path>
            <path d="M5220.08,302.19 C5220.16532,309.156372 5219.32804,316.103384 5217.59,322.85 C5216.14514,328.485803 5213.64426,333.796352 5210.22,338.5 C5207.10278,342.720179 5203.01388,346.126452 5198.3,348.43 C5193.2307,350.7892 5187.69045,351.962227 5182.1,351.86 C5179.47307,351.880444 5176.8525,351.598591 5174.29,351.02 C5171.84589,350.4388 5169.49133,349.530614 5167.29,348.32 C5164.84997,346.9809 5162.54871,345.403184 5160.42,343.61 C5157.8627,341.466055 5155.43509,339.17201 5153.15,336.74 L5153.15,347.54 C5153.16055,348.028602 5153.02473,348.509194 5152.76,348.92 C5152.43844,349.35357 5151.99171,349.67815 5151.48,349.85 C5150.76436,350.107161 5150.0236,350.288161 5149.27,350.39 C5148.14877,350.527987 5147.01963,350.591459 5145.89,350.58 C5144.77375,350.588129 5143.65813,350.524666 5142.55,350.39 C5141.7828,350.291247 5141.02845,350.110204 5140.3,349.85 C5139.80477,349.692492 5139.38251,349.36249 5139.11,348.92 C5138.91029,348.487826 5138.81114,348.016005 5138.81945,347.54 L5138.81945,216.4 C5138.81093,215.92012 5138.93187,215.446727 5139.17,215.03 C5139.46801,214.562592 5139.91573,214.210061 5140.44,214.03 C5141.24195,213.718394 5142.08335,213.519826 5142.94,213.44 C5144.24481,213.294621 5145.55718,213.227834 5146.87,213.24 C5148.20613,213.226691 5149.54186,213.293477 5150.87,213.44 C5151.71441,213.515477 5152.54321,213.714254 5153.33,214.03 C5153.84238,214.236042 5154.2861,214.582698 5154.61,215.03 C5154.8745,215.437199 5155.01039,215.914549 5155,216.4 L5155,269.3 C5157.35431,266.849383 5159.89892,264.588988 5162.61,262.54 C5164.86805,260.827509 5167.28199,259.330934 5169.82,258.07 C5172.06803,256.962364 5174.43729,256.120035 5176.88,255.56 C5179.33186,255.0355 5181.83267,254.774021 5184.34,254.78 C5190.76,254.78 5196.24,256.056667 5200.78,258.61 C5205.25131,261.087509 5209.05901,264.607054 5211.88,268.87 C5214.85919,273.467287 5216.97072,278.571581 5218.11,283.93 C5219.44696,289.923925 5220.10775,296.048841 5220.08,302.19 L5220.08,302.19 Z M5203.30047,304.05 C5203.31484,299.647122 5202.98046,295.250003 5202.3,290.9 C5201.70413,286.968774 5200.48551,283.157639 5198.69,279.61 C5197.08836,276.467318 5194.7523,273.757344 5191.88,271.71 C5188.75715,269.629111 5185.06038,268.579886 5181.31,268.71 C5179.20226,268.7085 5177.10487,269.00476 5175.08,269.59 C5172.87145,270.258402 5170.77502,271.252688 5168.86,272.54 C5166.51566,274.102069 5164.31976,275.87619 5162.3,277.84 C5159.67544,280.382676 5157.23589,283.109618 5155,286 L5155,321.24 C5158.70642,325.934579 5163.0248,330.111699 5167.84,333.66 C5171.53283,336.378703 5175.9847,337.871986 5180.57,337.93 C5184.28259,338.039681 5187.93977,337.010224 5191.05,334.98 C5193.96705,332.96983 5196.36598,330.296736 5198.05,327.18 C5199.9433,323.780908 5201.29296,320.106449 5202.05,316.29 C5202.88208,312.263164 5203.30047,308.161905 5203.30047,304.05 L5203.30047,304.05 Z" id="Shape" fill="#2D2D2D" fill-rule="nonzero"></path>
            <path d="M5284.47,350 L5272.69,382.49 C5272.10697,383.704559 5271.00292,384.587799 5269.69,384.89 C5267.31189,385.548692 5264.84553,385.832104 5262.38,385.73 C5260.99933,385.750306 5259.61902,385.670118 5258.25,385.49 C5257.39794,385.389996 5256.57845,385.103174 5255.85,384.65 C5255.31314,384.297876 5254.96686,383.719511 5254.91,383.08 C5254.88397,382.265615 5255.05192,381.456709 5255.4,380.72 L5267.58,350 C5266.94244,349.695418 5266.37668,349.259166 5265.92,348.72 C5265.42019,348.192475 5265.05038,347.555585 5264.84,346.86 L5233.33,262.44 C5232.88803,261.415583 5232.62424,260.323217 5232.55,259.21 C5232.51702,258.501342 5232.80323,257.815176 5233.33,257.34 C5234.07598,256.797028 5234.95961,256.474763 5235.88,256.41 C5237.44322,256.228937 5239.01648,256.148771 5240.59,256.17 C5242.59,256.17 5244.1,256.17 5245.21,256.31 C5246.11389,256.367806 5247.00556,256.549504 5247.86,256.85 C5248.44641,257.05722 5248.9464,257.455096 5249.28,257.98 C5249.64189,258.621285 5249.95285,259.290009 5250.21,259.98 L5275.44,330.85 L5275.73,330.85 L5300.07,259.59 C5300.27333,258.653094 5300.77511,257.807433 5301.5,257.18 C5302.26997,256.748846 5303.12146,256.483179 5304,256.4 C5305.59624,256.213465 5307.20312,256.133289 5308.81,256.16 C5310.31696,256.141494 5311.82351,256.221665 5313.32,256.4 C5314.25728,256.472131 5315.1583,256.793186 5315.93,257.33 C5316.4865,257.787244 5316.79423,258.480558 5316.76,259.2 C5316.72038,260.205075 5316.52123,261.19746 5316.17,262.14 L5284.47,350 Z" id="Path" fill="#2D2D2D" fill-rule="nonzero"></path>
            <path d="M5427.61,341.06 C5427.64287,342.576778 5427.50873,344.092567 5427.21,345.58 C5427.03429,346.481709 5426.61594,347.318408 5426,348 C5425.31183,348.632807 5424.51141,349.131373 5423.64,349.47 C5422.48486,349.967729 5421.28197,350.346354 5420.05,350.6 C5418.71,350.89 5417.29,351.14 5415.79,351.34 C5414.29089,351.531182 5412.78125,351.628039 5411.27,351.63 C5407.26777,351.71913 5403.28086,351.10654 5399.49,349.82 C5396.39393,348.706697 5393.63815,346.812099 5391.49,344.32 C5389.26326,341.61058 5387.69855,338.419529 5386.92,335 C5385.90179,330.638343 5385.42155,326.168407 5385.49,321.69 L5385.49,270.09 L5373.13,270.09 C5372.10679,270.064299 5371.18909,269.453795 5370.77,268.52 C5370.07366,266.911127 5369.77194,265.159121 5369.89,263.41 C5369.87285,262.361066 5369.95657,261.312912 5370.14,260.28 C5370.26284,259.553531 5370.47442,258.844895 5370.77,258.17 C5370.96654,257.678628 5371.31752,257.264478 5371.77,256.99 C5372.2069,256.758241 5372.69551,256.64125 5373.19,256.65 L5385.45,256.65 L5385.45,235.65 C5385.45023,235.198377 5385.57478,234.755532 5385.81,234.37 C5386.11984,233.91345 5386.56351,233.564103 5387.08,233.37 C5387.874,233.025088 5388.71794,232.80904 5389.58,232.73 C5390.88481,232.584621 5392.19718,232.517834 5393.51,232.53 C5394.84612,232.517262 5396.18181,232.584047 5397.51,232.73 C5398.35979,232.805578 5399.19112,233.021858 5399.97,233.37 C5400.4717,233.589543 5400.9089,233.933791 5401.24,234.37 C5401.49289,234.749103 5401.62854,235.19429 5401.63,235.65 L5401.63,256.65 L5424.31,256.65 C5424.78901,256.637387 5425.26247,256.754889 5425.68,256.99 C5426.11644,257.282843 5426.46271,257.691439 5426.68,258.17 C5427.01067,258.832258 5427.22705,259.545635 5427.32,260.28 C5427.464,261.316949 5427.53085,262.363156 5427.52,263.41 C5427.64163,265.160279 5427.33621,266.913904 5426.63,268.52 C5426.21633,269.453864 5425.30109,270.065323 5424.28,270.09 L5401.6,270.09 L5401.6,319.36 C5401.6,325.46 5402.5,330.05 5404.3,333.16 C5406.1,336.27 5409.3,337.82 5413.98,337.82 C5415.32605,337.832216 5416.66879,337.684515 5417.98,337.38 C5419.15,337.08 5420.2,336.78 5421.12,336.45 C5422.04,336.12 5422.82,335.81 5423.47,335.52 C5424.02162,335.246727 5424.62485,335.093363 5425.24,335.07 C5425.56489,335.073271 5425.8841,335.155646 5426.17,335.31 C5426.50547,335.530249 5426.75042,335.863939 5426.86,336.25 C5427.05821,336.860071 5427.20538,337.485556 5427.3,338.12 C5427.48245,339.090036 5427.58612,340.073243 5427.61,341.06 Z" id="Path" fill="#2D2D2D" fill-rule="nonzero"></path>
            <path d="M5525.68,347.54 C5525.69669,348.010663 5525.5598,348.473979 5525.29,348.86 C5524.95424,349.278953 5524.5122,349.600123 5524.01,349.79 C5523.22744,350.109888 5522.40181,350.312082 5521.56,350.39 C5520.25455,350.52639 5518.94251,350.589822 5517.63,350.581205 C5516.29417,350.590931 5514.95878,350.527499 5513.63,350.39 C5512.78477,350.313205 5511.95568,350.110987 5511.17,349.79 C5510.67007,349.595932 5510.22904,349.275496 5509.89,348.86 C5509.62374,348.472756 5509.49039,348.00954 5509.51,347.54 L5509.51,295.81 C5509.60745,291.720118 5509.20786,287.633536 5508.32,283.64 C5507.65091,280.794054 5506.49015,278.086752 5504.89,275.64 C5503.42393,273.457572 5501.40998,271.698817 5499.05,270.54 C5496.45623,269.319651 5493.61596,268.713954 5490.75,268.77 C5486.69,268.77 5482.64,270.22 5478.59,273.09 C5473.77641,276.708945 5469.48293,280.97215 5465.83,285.76 L5465.83,347.5 C5465.8483,347.972386 5465.70744,348.437233 5465.43,348.82 C5465.09424,349.238953 5464.6522,349.560123 5464.15,349.75 C5463.36786,350.071164 5462.54204,350.273406 5461.7,350.35 C5460.37122,350.487499 5459.03583,350.550931 5457.7,350.54 C5456.38748,350.550093 5455.07543,350.48666 5453.77,350.35 C5452.90979,350.265972 5452.06522,350.064082 5451.26,349.75 C5450.75105,349.578086 5450.30754,349.253312 5449.99,348.82 C5449.75459,348.420809 5449.63674,347.963242 5449.65,347.5 L5449.65,216.4 C5449.63996,215.910497 5449.76079,215.427189 5450,215 C5450.30092,214.535228 5450.74761,214.183501 5451.27,214 C5452.07586,213.68982 5452.92035,213.491314 5453.78,213.41 C5455.08478,213.264331 5456.39717,213.197543 5457.71,213.21 C5459.04613,213.196691 5460.38186,213.263477 5461.71,213.41 C5462.55142,213.483988 5463.37714,213.682835 5464.16,214 C5464.67551,214.20058 5465.12065,214.548342 5465.44,215 C5465.71213,215.404157 5465.85192,215.882909 5465.84,216.37 L5465.84,269.27 C5469.84653,264.85206 5474.58202,261.154995 5479.84,258.34 C5484.22874,256.024542 5489.1081,254.793559 5494.07,254.75 C5499.96333,254.75 5504.92,255.75 5508.94,257.75 C5512.78948,259.597128 5516.13983,262.340512 5518.71,265.75 C5521.27604,269.257098 5523.09677,273.25249 5524.06,277.49 C5525.2293,282.82198 5525.77297,288.272105 5525.68,293.73 L5525.68,347.54 Z" id="Path" fill="#2D2D2D" fill-rule="nonzero"></path>
            <path d="M5631.0006,299.54 C5631.0006,302.09 5630.36,303.9 5629.08,304.99 C5627.86123,306.042805 5626.30046,306.615205 5624.69,306.6 L5566.51,306.6 C5566.45668,311.060718 5566.95376,315.510984 5567.99,319.85 C5568.86244,323.547221 5570.54645,327.004052 5572.92,329.97 C5575.32528,332.854689 5578.42136,335.083869 5581.92,336.45 C5586.24033,338.062293 5590.83018,338.829532 5595.44,338.71 C5599.21106,338.763414 5602.9776,338.428313 5606.68,337.71 C5609.57512,337.136114 5612.42825,336.367705 5615.22,335.41 C5617.62,334.556667 5619.59,333.786667 5621.13,333.1 C5622.2261,332.547351 5623.41722,332.207999 5624.64,332.1 C5625.07437,332.091097 5625.50187,332.20927 5625.87,332.44 C5626.23923,332.686859 5626.53058,333.033702 5626.71,333.44 C5626.93781,334.055788 5627.08895,334.697279 5627.16,335.35 C5627.25983,336.34681 5627.30656,337.348225 5627.3,338.35 C5627.30706,339.08794 5627.27368,339.825713 5627.2,340.56 C5627.15006,341.121156 5627.06657,341.678819 5626.95,342.23 C5626.86414,342.698152 5626.69839,343.148046 5626.46,343.56 C5626.21649,343.967234 5625.92435,344.34333 5625.59,344.68 C5624.60296,345.398098 5623.53165,345.992529 5622.4,346.45 C5620.17528,347.425863 5617.87843,348.228255 5615.53,348.85 C5612.30926,349.724378 5609.04475,350.428685 5605.75,350.96 C5601.84347,351.605405 5597.88943,351.919855 5593.93,351.9 C5587.43284,352.024052 5580.96542,350.991296 5574.83,348.85 C5569.59101,346.979055 5564.86904,343.895045 5561.05,339.85 C5557.13942,335.550323 5554.25084,330.422662 5552.6,324.85 C5550.59616,318.034035 5549.63859,310.95338 5549.76,303.85 C5549.66152,296.91404 5550.65707,290.005913 5552.71,283.38 C5554.45366,277.71771 5557.33975,272.473053 5561.19,267.97 C5564.87097,263.768298 5569.45095,260.449526 5574.59,258.26 C5580.15156,255.934883 5586.13263,254.780882 5592.16,254.87 C5599.08667,254.87 5604.99333,255.983333 5609.88,258.21 C5614.50709,260.267406 5618.6093,263.344065 5621.88,267.21 C5625.0798,271.098008 5627.43327,275.610814 5628.79,280.46 C5630.28074,285.709567 5631.02471,291.142927 5631.0006,296.6 L5631.0006,299.54 Z M5614.71,294.73 C5614.89667,286.23 5613.00333,279.563333 5609.03,274.73 C5605.05667,269.896667 5599.14667,267.48 5591.3,267.48 C5587.65249,267.393955 5584.03564,268.164591 5580.74,269.73 C5577.806,271.166838 5575.21176,273.212233 5573.13,275.73 C5571.03577,278.318752 5569.42966,281.266688 5568.39,284.43 C5567.26204,287.769881 5566.62867,291.256789 5566.51,294.78 L5614.71,294.73 Z" id="Shape" fill="#2D2D2D" fill-rule="nonzero"></path>
            <rect id="Rectangle" fill="#FFFFFF" fill-rule="nonzero" x="3294.16" y="111.16" width="826.68" height="565.08"></rect>
            <rect id="Rectangle" fill="#003399" fill-rule="nonzero" x="3313.52" y="131.04" width="787.97" height="525.33"></rect>
            <polygon id="Path" fill="#FFCC00" fill-rule="nonzero" points="3690.72 245.51 3707.33 233.38 3723.96 245.51 3717.65 225.89 3734.53 213.76 3713.71 213.76 3707.33 193.9 3700.97 213.79 3680.17 213.76 3697.03 225.89"></polygon>
            <polygon id="Path" fill="#FFCC00" fill-rule="nonzero" points="3604.67 268.63 3621.29 256.5 3637.92 268.63 3631.6 249.01 3648.48 236.88 3627.65 236.88 3621.28 216.99 3614.91 236.89 3594.11 236.88 3610.97 249.01"></polygon>
            <polygon id="Path" fill="#FFCC00" fill-rule="nonzero" points="3558.34 280.1 3551.98 300 3531.15 299.97 3548.03 312.11 3541.7 331.74 3558.34 319.6 3574.95 331.74 3568.64 312.11 3585.51 299.97 3564.7 299.97"></polygon>
            <polygon id="Path" fill="#FFCC00" fill-rule="nonzero" points="3535.23 405.54 3551.85 417.67 3545.55 398.05 3562.42 385.92 3541.6 385.92 3535.23 366.04 3528.87 385.96 3508.06 385.92 3524.93 398.05 3518.61 417.67"></polygon>
            <polygon id="Path" fill="#FFCC00" fill-rule="nonzero" points="3564.7 472.11 3558.34 452.24 3551.95 472.13 3531.16 472.11 3548.02 484.25 3541.71 503.87 3558.34 491.72 3574.97 503.87 3568.63 484.25 3585.51 472.11"></polygon>
            <polygon id="Path" fill="#FFCC00" fill-rule="nonzero" points="3627.79 535.19 3621.42 515.33 3615.04 535.22 3594.24 535.19 3611.1 547.33 3604.8 566.95 3621.42 554.81 3638.05 566.95 3631.72 547.33 3648.61 535.19"></polygon>
            <polygon id="Path" fill="#FFCC00" fill-rule="nonzero" points="3713.72 558.05 3707.36 538.17 3700.99 558.08 3680.18 558.05 3697.05 570.18 3690.73 589.82 3707.36 577.67 3723.98 589.82 3717.65 570.18 3734.54 558.05"></polygon>
            <polygon id="Path" fill="#FFCC00" fill-rule="nonzero" points="3799.66 535.19 3793.3 515.33 3786.91 535.22 3766.14 535.19 3782.98 547.33 3776.68 566.95 3793.3 554.81 3809.94 566.95 3803.58 547.33 3820.49 535.19"></polygon>
            <polygon id="Path" fill="#FFCC00" fill-rule="nonzero" points="3862.76 472.11 3856.39 452.24 3850 472.13 3829.21 472.11 3846.09 484.25 3839.76 503.87 3856.39 491.72 3873.02 503.87 3866.66 484.25 3883.56 472.11"></polygon>
            <polygon id="Path" fill="#FFCC00" fill-rule="nonzero" points="3906.42 385.67 3885.6 385.67 3879.21 365.8 3872.86 385.7 3852.04 385.67 3868.93 397.81 3862.61 417.43 3879.21 405.28 3895.85 417.43 3889.53 397.81"></polygon>
            <polygon id="Path" fill="#FFCC00" fill-rule="nonzero" points="3839.75 331.47 3856.37 319.34 3873.02 331.47 3866.67 311.85 3883.56 299.73 3862.76 299.73 3856.37 279.86 3850 299.76 3829.21 299.73 3846.09 311.85"></polygon>
            <polygon id="Path" fill="#FFCC00" fill-rule="nonzero" points="3793.54 217.01 3787.18 236.91 3766.36 236.87 3783.23 249.02 3776.91 268.65 3793.57 256.5 3810.16 268.65 3803.86 249.02 3820.73 236.87 3799.9 236.87"></polygon>
        </g>
    </g>
</svg>