<?xml version="1.0" encoding="UTF-8"?><svg id="Layer_2" xmlns="http://www.w3.org/2000/svg" viewBox="0 0 756.35 227.1"><g id="Layer_1-2"><text transform="translate(159.84 169.39)" font-family="Urbanist-Medium, Urbanist" font-size="154" font-weight="500"><tspan x="0" y="0" letter-spacing="-.03em">C</tspan><tspan x="104.26" y="0" letter-spacing="-.02em">o</tspan><tspan x="188.08" y="0" letter-spacing="-.05em">r</tspan><tspan x="236.36" y="0" letter-spacing="0em">d</tspan><tspan x="328.97" y="0" letter-spacing="0em">u</tspan><tspan x="408.74" y="0" letter-spacing="0em">l</tspan><tspan x="439.46" y="0" letter-spacing="0em">u</tspan><tspan x="519.22" y="0">s</tspan></text><g id="Group_2"><g id="Group_1"><path id="Path_6" d="m52.84,125.59c6.65-6.65,6.65-17.44,0-24.09-6.65-6.65-17.44-6.65-24.09,0s-6.65,17.44,0,24.09c6.65,6.65,17.44,6.65,24.09,0"/><path id="Path_7" d="m107.64,3.96c1.66-1.66,4.36-1.66,6.02,0s1.66,4.36,0,6.02-4.36,1.66-6.02,0-1.66-4.36,0-6.02"/><path id="Path_8" d="m84.75,20.82c2.49-2.49,6.54-2.49,9.03,0s2.49,6.54,0,9.03-6.54,2.49-9.03,0-2.49-6.54,0-9.03h0"/><path id="Path_9" d="m59.73,39.82c3.31-3.34,8.7-3.37,12.04-.06,3.34,3.31,3.37,8.7.06,12.04-3.31,3.34-8.7,3.37-12.04.06-3.34-3.31-3.37-8.7-.06-12.04,0,0,0,0,0,0"/><path id="Path_15" d="m147.08,225.86c1.66,1.66,4.36,1.66,6.02,0s1.66-4.36,0-6.02-4.36-1.66-6.02,0-1.66,4.36,0,6.02"/><path id="Path_16" d="m81.19,172.01c5.01,4.96,13.1,4.92,18.06-.09,4.96-5.01,4.92-13.1-.09-18.06-5.01-4.96-13.1-4.92-18.06.09h0c-4.96,5.01-4.92,13.1.09,18.06"/><path id="Path_17" d="m104.63,192.44c4.16,4.16,10.9,4.16,15.05,0,4.16-4.16,4.16-10.9,0-15.05-4.16-4.16-10.9-4.16-15.05,0-4.16,4.16-4.16,10.9,0,15.05h0"/><path id="Path_18" d="m126,210.8c3.33,3.33,8.72,3.33,12.04,0s3.33-8.72,0-12.04-8.72-3.33-12.04,0-3.33,8.72,0,12.04"/><path id="Path_31" d="m56.15,149.98c5.82,5.82,15.26,5.82,21.08,0s5.82-15.26,0-21.08c-5.82-5.82-15.26-5.82-21.08,0s-5.82,15.26,0,21.08h0"/><path id="Path_20" d="m107.64,223.15c1.66,1.66,4.36,1.66,6.02,0s1.66-4.36,0-6.02-4.36-1.66-6.02,0-1.66,4.36,0,6.02"/><path id="Path_21" d="m84.75,206.29c2.49,2.49,6.54,2.49,9.03,0,2.49-2.49,2.49-6.54,0-9.03-2.49-2.49-6.54-2.49-9.03,0-2.49,2.49-2.49,6.54,0,9.03"/><path id="Path_22" d="m59.73,187.29c3.31,3.34,8.7,3.37,12.04.06,3.34-3.31,3.37-8.7.06-12.04-3.31-3.34-8.7-3.37-12.04-.06-3.34,3.31-3.37,8.7-.06,12.04h0"/><path id="Path_23" d="m49.83,171.36c-4.99,4.99-13.08,4.99-18.07,0-4.99-4.99-4.99-13.08,0-18.07,4.99-4.99,13.08-4.99,18.07,0,4.99,4.99,4.99,13.08,0,18.07h0"/><path id="Path_24" d="m25.44,149.98c-5.82,5.82-15.26,5.82-21.08,0-5.82-5.82-5.82-15.26,0-21.08,5.82-5.82,15.26-5.82,21.08,0,5.82,5.82,5.82,15.26,0,21.08h0"/><path id="Path_20-2" d="m150.39,180.4c1.66,1.66,1.66,4.36,0,6.02s-4.36,1.66-6.02,0-1.66-4.36,0-6.02,4.36-1.66,6.02,0"/><path id="Path_21-2" d="m133.52,157.52c2.49,2.49,2.49,6.54,0,9.03s-6.54,2.49-9.03,0c-2.49-2.49-2.49-6.54,0-9.03s6.54-2.49,9.03,0"/><path id="Path_22-2" d="m114.53,132.5c3.34,3.31,3.37,8.7.06,12.04-3.31,3.34-8.7,3.37-12.04.06-3.34-3.31-3.37-8.7-.06-12.04,3.31-3.34,8.7-3.37,12.04-.06h0"/><path id="Path_23-2" d="m98.6,122.59c4.99-4.99,4.99-13.08,0-18.07-4.99-4.99-13.08-4.99-18.07,0s-4.99,13.08,0,18.07c4.99,4.99,13.08,4.99,18.07,0h0"/><path id="Path_32" d="m150.39,46.72c1.66-1.66,1.66-4.36,0-6.02s-4.36-1.66-6.02,0c-1.66,1.66-1.66,4.36,0,6.02,1.66,1.66,4.36,1.66,6.02,0"/><path id="Path_33" d="m133.52,69.6c2.49-2.49,2.49-6.54,0-9.03s-6.54-2.49-9.03,0-2.49,6.54,0,9.03,6.54,2.49,9.03,0"/><path id="Path_34" d="m114.53,94.61c3.34-3.31,3.37-8.7.06-12.04-3.31-3.34-8.7-3.37-12.04-.06-3.34,3.31-3.37,8.7-.06,12.04,3.31,3.34,8.7,3.37,12.04.06,0,0,0,0,0,0"/><path id="Path_35" d="m153.1,7.27c1.66-1.66,1.66-4.36,0-6.02s-4.36-1.66-6.02,0-1.66,4.36,0,6.02,4.36,1.66,6.02,0"/><path id="Path_36" d="m99.25,73.16c4.96-5.01,4.92-13.1-.09-18.06s-13.1-4.92-18.06.09c-4.96,5.01-4.92,13.1.09,18.06h0c5.01,4.96,13.1,4.92,18.06-.09"/><path id="Path_37" d="m119.68,49.72c4.16-4.16,4.16-10.9,0-15.05-4.16-4.16-10.9-4.16-15.05,0-4.16,4.16-4.16,10.9,0,15.05,4.16,4.16,10.9,4.16,15.05,0h0"/><path id="Path_38" d="m138.05,28.34c3.33-3.33,3.33-8.72,0-12.04s-8.72-3.33-12.04,0-3.33,8.72,0,12.04,8.72,3.33,12.04,0"/><path id="Path_39" d="m77.22,98.2c5.82-5.82,5.82-15.26,0-21.08-5.82-5.82-15.26-5.82-21.08,0-5.82,5.82-5.82,15.26,0,21.08,5.82,5.82,15.26,5.82,21.08,0h0"/><path id="Path_40" d="m49.82,55.75c-4.99-4.99-13.08-4.99-18.07,0s-4.99,13.08,0,18.07,13.08,4.99,18.07,0,4.99-13.08,0-18.07"/><path id="Path_41" d="m25.44,77.12c-5.82-5.82-15.26-5.82-21.08,0-5.82,5.82-5.82,15.26,0,21.08,5.82,5.82,15.26,5.82,21.08,0,5.82-5.82,5.82-15.26,0-21.08"/></g></g></g></svg>